<svg version="1.0" xmlns="http://www.w3.org/2000/svg" width="32" height="32" viewBox="0 0 512.000000 512.000000" preserveAspectRatio="xMidYMid meet">

<g transform="translate(0.000000,512.000000) scale(0.100000,-0.100000)" fill="#000000" stroke="none">
<path d="M2185 4990 c-55 -7 -89 -15 -139 -36 -14 -5 -17 -4 -12 4 4 7 3 12
-3 12 -5 0 -13 -4 -16 -10 -3 -5 -22 -10 -41 -10 -19 0 -34 -5 -34 -11 0 -6
-7 -9 -15 -6 -8 4 -17 2 -20 -3 -4 -6 -17 -10 -30 -10 -14 0 -29 -8 -34 -19
-6 -10 -24 -24 -40 -29 -16 -6 -42 -24 -57 -41 -15 -17 -31 -31 -36 -31 -21 0
-107 -88 -121 -123 -3 -9 -13 -17 -22 -17 -8 0 -15 -6 -15 -14 0 -8 -8 -21
-18 -28 -9 -7 -26 -32 -37 -55 -11 -24 -23 -43 -26 -43 -3 0 -16 -25 -29 -55
-13 -30 -27 -55 -32 -55 -5 0 -7 -4 -3 -10 3 -5 1 -17 -4 -27 -5 -10 -17 -35
-26 -55 -9 -21 -21 -38 -28 -38 -7 -1 -6 -5 4 -13 14 -11 14 -14 -3 -31 -13
-15 -15 -23 -7 -33 7 -8 7 -13 2 -13 -15 0 -9 -90 7 -100 19 -12 67 5 104 38
18 16 54 39 80 51 25 13 46 27 46 32 0 5 9 9 20 9 11 0 20 4 20 10 0 5 6 7 14
4 8 -3 17 0 21 5 3 6 11 9 16 6 12 -8 51 20 42 29 -4 4 0 4 9 1 9 -4 30 1 46
9 42 22 113 45 149 49 16 2 34 6 40 10 6 4 18 4 27 1 9 -3 16 -1 16 4 0 6 10
9 21 7 12 -3 27 -1 33 2 6 4 23 7 38 8 15 1 31 4 34 8 4 3 15 2 26 -4 13 -7
23 -7 32 0 8 7 29 8 57 3 24 -5 56 -5 71 -1 20 5 30 3 36 -8 7 -12 55 -30 102
-37 9 -1 21 -5 28 -10 6 -4 16 -5 21 -1 5 3 12 1 16 -5 3 -5 17 -9 30 -8 13 1
21 6 19 10 -3 5 1 10 8 13 8 3 14 14 15 24 3 34 24 101 32 101 12 0 151 -140
151 -152 0 -6 2 -9 5 -6 7 7 75 -61 75 -74 0 -6 7 -8 15 -4 9 3 15 0 15 -9 0
-8 11 -22 24 -31 15 -9 23 -21 19 -30 -3 -8 -1 -14 3 -12 15 5 64 -38 64 -56
0 -9 4 -16 8 -16 8 0 82 -95 82 -106 0 -4 7 -12 14 -18 8 -6 16 -18 18 -26 2
-8 11 -23 20 -34 10 -10 15 -23 12 -28 -3 -4 0 -8 6 -8 7 0 9 -7 6 -16 -4 -12
-1 -14 14 -9 11 4 20 2 20 -4 0 -6 -6 -11 -12 -11 -9 -1 -7 -5 3 -13 12 -9 14
-18 8 -35 -7 -17 -5 -22 9 -22 11 0 18 -8 19 -22 1 -11 8 -25 15 -29 7 -5 9
-9 3 -9 -5 0 -1 -7 9 -15 11 -9 19 -27 19 -44 0 -17 5 -29 10 -28 6 1 16 -22
23 -52 7 -30 17 -57 22 -60 6 -3 14 -20 18 -36 4 -17 12 -33 18 -37 8 -6 7
-11 -3 -17 -11 -7 -9 -13 8 -30 12 -12 19 -25 17 -30 -3 -4 -1 -21 4 -37 16
-52 30 -108 34 -141 2 -17 7 -37 11 -42 3 -6 1 -11 -6 -11 -8 0 -8 -4 2 -16 7
-9 9 -18 3 -22 -5 -4 -10 -19 -12 -33 -2 -22 4 -30 32 -43 19 -9 36 -16 38
-16 11 0 47 38 41 43 -3 4 0 13 6 21 8 9 10 27 6 45 -3 17 -2 32 4 36 6 3 11
11 11 16 0 6 -4 8 -9 4 -5 -3 -12 -1 -15 4 -4 5 -2 12 3 16 6 3 6 16 1 33 -5
15 -8 43 -7 62 2 19 -1 40 -5 46 -5 7 -11 21 -13 33 -3 16 1 21 18 22 12 0 16
3 9 6 -6 2 -10 9 -7 14 4 5 -1 6 -9 3 -14 -6 -21 5 -17 29 0 4 -4 7 -10 7 -5
0 -8 4 -5 9 3 5 -2 12 -11 15 -12 5 -13 10 -6 17 13 13 -3 69 -19 69 -6 0 -8
7 -5 15 4 8 2 17 -4 21 -7 4 -6 10 1 19 9 11 7 17 -8 26 -12 8 -17 20 -14 35
3 18 -1 26 -19 32 -15 6 -19 11 -10 16 15 10 38 -9 57 -46 9 -17 23 -28 35
-28 16 0 19 -4 14 -21 -4 -13 -3 -19 2 -16 5 4 17 -9 26 -28 9 -19 21 -35 26
-35 5 0 12 -7 15 -16 3 -8 2 -12 -4 -9 -6 3 -10 1 -10 -4 0 -6 5 -11 11 -11 8
0 7 -6 -2 -17 -8 -9 -9 -14 -3 -10 10 6 34 -32 34 -54 0 -6 9 -23 20 -39 11
-15 17 -29 15 -32 -3 -3 -7 -19 -9 -37 -2 -23 0 -31 10 -27 7 3 17 -1 22 -7
13 -18 23 -49 13 -43 -5 3 -15 -1 -22 -10 -11 -13 -11 -15 2 -14 28 4 39 0 39
-15 0 -12 -4 -13 -19 -6 -15 8 -20 7 -25 -6 -9 -24 10 -39 29 -23 12 10 15 10
15 -3 0 -16 26 -30 41 -21 5 3 9 -2 9 -11 0 -8 -6 -18 -14 -21 -18 -7 -9 -53
16 -81 11 -12 17 -27 13 -34 -5 -7 -3 -10 6 -7 16 5 59 -64 79 -127 7 -22 21
-48 31 -58 10 -10 21 -28 23 -40 8 -40 16 -81 21 -112 3 -16 9 -31 14 -33 5
-2 7 -12 4 -23 -3 -10 0 -25 6 -33 6 -7 8 -22 4 -31 -5 -13 -3 -16 6 -10 10 5
11 2 7 -13 -5 -15 -1 -21 16 -26 13 -3 25 -1 26 4 2 6 8 7 14 4 6 -4 6 1 -1
13 -12 24 -3 37 16 21 19 -16 27 -3 9 15 -19 18 -8 31 12 14 13 -10 14 -9 7 2
-6 11 -4 13 8 8 16 -6 22 8 18 35 0 4 7 4 16 1 12 -5 15 -2 10 10 -3 8 -1 18
6 20 9 3 8 10 -2 28 -13 22 -13 23 3 10 15 -12 19 -12 26 -1 4 7 6 19 3 27 -3
7 0 13 6 13 6 0 11 6 11 14 0 8 5 16 10 18 6 2 12 12 15 23 9 45 25 88 36 102
10 12 10 16 -2 24 -12 7 -12 9 1 10 8 1 22 1 30 0 8 0 2 6 -15 14 l-30 14 34
12 c32 11 33 13 15 27 -13 10 -14 13 -3 9 22 -7 44 30 28 49 -9 11 -9 14 0 14
7 0 9 5 6 10 -4 6 -1 17 5 25 6 8 9 23 5 35 -4 13 -2 20 7 20 17 0 21 59 5 79
-9 12 -9 13 1 7 21 -13 31 2 22 34 -5 17 -5 30 -1 30 4 0 6 21 5 46 -2 35 0
45 11 41 14 -6 15 9 1 31 -4 7 -5 16 -2 19 3 3 0 15 -6 26 -9 17 -8 19 6 14 9
-4 16 -2 16 2 0 5 -6 11 -12 14 -10 3 -10 7 -1 19 7 8 9 18 4 24 -5 5 -11 18
-13 29 -1 11 -6 22 -10 25 -3 3 -9 28 -12 56 -7 61 -14 83 -35 107 -14 17 -14
20 4 33 19 14 19 14 -1 14 -16 0 -17 2 -4 10 8 5 11 10 5 10 -5 0 -16 4 -24 9
-13 8 -13 12 0 27 12 16 12 17 -3 12 -20 -8 -33 19 -18 37 8 9 6 14 -6 19 -10
4 -14 13 -11 26 3 11 1 20 -4 20 -5 0 -9 -10 -9 -22 -1 -23 -1 -23 -17 -3 -13
16 -15 17 -10 3 8 -22 -9 -24 -17 -2 -8 22 -8 24 9 24 12 0 13 4 3 25 -6 14
-15 25 -21 25 -5 0 -6 8 -3 17 4 9 3 19 -1 22 -7 5 -23 36 -51 94 -2 4 1 7 6
7 5 0 20 -16 33 -35 13 -19 32 -38 42 -41 9 -3 17 -14 17 -25 0 -10 6 -18 13
-17 7 2 11 -6 9 -22 -1 -15 1 -20 6 -13 5 8 24 -6 59 -42 37 -38 48 -56 40
-64 -7 -7 -6 -12 4 -15 8 -2 22 -7 31 -10 11 -3 15 -11 12 -21 -4 -10 0 -15
10 -15 9 0 16 -7 16 -15 0 -8 7 -15 15 -15 13 0 14 -4 5 -20 -9 -17 -8 -20 10
-20 12 0 18 -4 15 -10 -3 -5 0 -10 8 -10 15 0 30 -31 42 -83 4 -19 11 -27 20
-23 10 3 12 0 8 -11 -4 -11 -2 -14 5 -9 13 8 27 -36 18 -59 -3 -8 -1 -25 4
-37 5 -13 9 -17 9 -10 1 17 21 15 21 -3 0 -8 5 -15 10 -15 6 0 10 -5 10 -11 0
-5 -4 -8 -9 -4 -5 3 -13 0 -17 -6 -4 -8 -3 -9 4 -5 7 4 12 2 12 -4 0 -6 5 -8
10 -5 6 3 10 1 10 -5 0 -6 -7 -13 -15 -16 -11 -5 -12 -10 -3 -24 7 -10 16 -16
20 -14 17 11 28 -8 13 -22 -8 -9 -19 -12 -25 -9 -5 3 -10 2 -10 -3 0 -15 28
-22 33 -9 2 7 8 9 12 5 4 -4 2 -16 -6 -25 -7 -10 -10 -15 -5 -11 8 6 46 -26
46 -39 0 -4 -5 -2 -12 5 -16 16 -25 15 -25 -3 0 -8 3 -13 5 -10 10 10 31 -32
28 -58 -2 -15 0 -27 4 -27 12 0 19 -39 9 -46 -6 -4 -6 -10 0 -18 7 -9 7 -16 0
-23 -8 -8 -7 -13 2 -18 8 -5 10 -4 5 3 -4 7 -2 12 3 12 14 0 14 -17 1 -25 -7
-4 -3 -13 9 -24 15 -14 17 -21 9 -29 -7 -7 -8 -12 -2 -12 5 0 2 -5 -6 -10 -13
-8 -13 -10 2 -10 11 0 15 -5 12 -15 -4 -8 -1 -15 6 -15 10 0 10 -3 1 -14 -8
-10 -9 -16 -1 -21 6 -3 8 -11 5 -16 -4 -5 -2 -9 3 -9 5 0 8 -18 8 -39 0 -35
-3 -40 -28 -43 -15 -3 -28 0 -28 5 0 5 -6 5 -13 -1 -7 -6 -18 -7 -26 -3 -14 9
-79 -5 -95 -19 -5 -5 -18 -4 -29 1 -12 7 -17 7 -13 1 3 -5 -3 -12 -14 -15 -17
-4 -19 -1 -16 18 2 13 13 36 22 52 17 25 17 27 1 14 -15 -12 -17 -11 -17 2 0
9 5 19 10 22 6 4 7 13 1 24 -10 19 -9 46 2 57 12 13 8 34 -7 34 -8 0 -16 6
-19 13 -5 12 -8 6 -22 -39 -3 -9 -11 -14 -20 -10 -11 4 -15 -2 -16 -22 0 -15
-2 -40 -5 -57 -2 -16 -6 -41 -8 -53 -1 -13 -7 -27 -13 -30 -8 -6 -24 -41 -28
-62 -7 -41 -98 -142 -121 -133 -7 3 -14 0 -14 -6 0 -6 -7 -11 -15 -11 -18 0
-20 -16 -2 -24 6 -4 2 -4 -10 -2 -25 5 -29 -4 -11 -22 12 -12 2 -17 -29 -13
-7 1 -10 -5 -7 -13 4 -11 0 -13 -15 -9 -16 4 -19 1 -14 -18 5 -17 3 -20 -7
-14 -10 6 -12 4 -7 -8 5 -12 1 -17 -12 -17 -12 0 -23 -11 -30 -30 -5 -16 -15
-30 -21 -30 -6 0 -35 -26 -65 -57 -43 -47 -55 -54 -60 -41 -4 9 -4 22 0 28 3
5 2 10 -3 10 -5 0 -8 18 -8 40 1 27 -3 40 -12 40 -7 0 -10 5 -7 10 3 6 1 10
-5 10 -7 0 -9 8 -5 19 3 12 0 21 -10 24 -8 4 -12 13 -9 20 3 8 -2 17 -11 21
-9 3 -13 11 -10 16 4 6 1 17 -5 25 -6 8 -9 19 -5 25 9 14 -8 13 -23 -2 -9 -9
-12 -9 -12 0 0 7 5 12 10 12 17 0 11 25 -9 39 -11 8 -17 20 -14 28 3 7 0 13
-6 13 -6 0 -11 7 -11 16 0 14 -3 14 -15 4 -12 -10 -15 -9 -15 4 0 9 -7 19 -15
22 -16 7 -21 54 -5 54 5 0 7 6 4 14 -3 8 -1 17 5 20 6 4 4 16 -5 34 -17 33
-18 53 -1 50 16 -4 16 30 -1 64 -17 36 -52 45 -151 40 -113 -5 -192 5 -184 24
3 9 -2 14 -16 14 -12 0 -21 6 -21 16 0 8 -4 12 -10 9 -5 -3 -10 1 -10 9 0 8
-9 18 -20 21 -11 3 -20 14 -20 23 0 14 -1 14 -13 -1 -11 -16 -14 -15 -29 11
-10 17 -20 61 -23 102 -3 40 -10 81 -16 91 -5 11 -7 24 -3 30 3 6 -1 18 -10
28 -9 10 -16 25 -14 32 2 11 -15 14 -82 14 -47 -1 -103 -4 -125 -9 -22 -4 -48
-7 -57 -7 -10 0 -20 -5 -23 -10 -4 -5 -11 -7 -16 -3 -5 3 -15 2 -22 -3 -7 -5
-21 -10 -32 -11 -48 -4 -61 -8 -74 -21 -13 -11 -18 -10 -34 10 -10 12 -16 31
-14 40 3 11 -2 19 -15 23 -14 3 -19 10 -15 20 4 9 3 16 -1 16 -4 0 -13 14 -21
32 -8 17 -21 38 -30 47 -9 9 -25 33 -34 54 -10 20 -22 38 -27 38 -6 1 -16 2
-22 3 -7 1 -18 -2 -25 -6 -6 -5 -14 -4 -18 2 -5 8 -14 6 -29 -7 -18 -17 -165
-107 -279 -172 -39 -21 -57 -21 -57 2 0 7 -9 20 -20 30 -11 9 -20 24 -20 32 0
8 -4 15 -10 15 -5 0 -22 18 -36 40 -15 22 -32 39 -38 38 -6 -2 -21 6 -33 17
-31 28 -44 38 -76 54 -20 11 -31 27 -40 58 -6 25 -17 43 -25 43 -8 0 -12 6 -9
14 8 21 -52 12 -116 -19 -31 -14 -59 -31 -63 -36 -3 -6 -12 -8 -20 -5 -8 3
-14 1 -14 -5 0 -14 -26 -39 -39 -39 -6 0 -11 -3 -11 -7 0 -5 -19 -28 -43 -53
-60 -63 -108 -126 -100 -133 3 -4 -2 -9 -11 -13 -9 -3 -14 -10 -11 -14 2 -4
-5 -18 -18 -32 -12 -13 -22 -30 -22 -38 1 -30 -44 -85 -72 -87 -40 -3 -61 -8
-69 -15 -3 -4 -12 -4 -19 -2 -7 3 -16 0 -20 -5 -3 -6 -11 -9 -16 -5 -5 3 -16
0 -24 -6 -8 -6 -19 -9 -25 -5 -5 3 -10 1 -10 -4 0 -10 -56 -39 -90 -46 -8 -2
-17 -4 -20 -5 -3 -1 -9 -3 -15 -4 -5 0 -20 -7 -31 -13 -12 -7 -24 -10 -27 -6
-4 3 -9 -2 -13 -11 -3 -9 -11 -13 -16 -10 -6 4 -14 1 -18 -5 -4 -7 -13 -13
-21 -14 -8 -2 -25 -10 -38 -19 -13 -9 -30 -14 -37 -11 -10 3 -12 0 -8 -10 4
-12 1 -14 -15 -10 -17 4 -20 2 -15 -11 6 -15 -5 -21 -29 -17 -5 1 -6 -3 -2 -9
4 -6 -6 -13 -23 -16 -19 -4 -29 -12 -28 -22 1 -12 -14 -22 -46 -33 -62 -20
-66 -25 -27 -33 18 -3 30 -8 27 -11 -2 -3 -30 0 -60 5 -67 13 -195 7 -211 -9
-6 -6 -19 -11 -29 -11 -10 0 -18 -6 -18 -14 0 -7 -7 -19 -15 -26 -8 -7 -12
-16 -9 -21 3 -5 2 -9 -3 -9 -9 0 -12 -27 -14 -120 -1 -82 6 -123 20 -128 9 -3
9 -8 1 -17 -8 -9 -6 -14 5 -18 8 -4 12 -13 9 -21 -7 -19 26 -76 44 -76 7 0 11
-4 7 -9 -3 -5 -1 -12 5 -16 5 -3 10 -16 10 -28 0 -16 3 -18 9 -8 7 10 12 8 25
-10 9 -13 16 -20 16 -15 0 5 9 -3 21 -17 11 -15 23 -26 27 -25 4 1 32 -10 62
-24 30 -14 72 -31 93 -39 27 -9 36 -18 32 -29 -3 -9 5 -26 20 -40 13 -12 22
-27 19 -31 -3 -5 2 -9 11 -9 10 0 15 -6 12 -13 -2 -7 9 -26 25 -42 16 -16 24
-31 19 -33 -6 -2 -9 -8 -6 -12 3 -5 12 -7 20 -3 8 3 15 0 15 -7 0 -6 -5 -8
-11 -4 -8 5 -10 -5 -5 -32 3 -22 7 -45 8 -51 1 -7 5 -13 10 -13 4 0 8 -5 8
-11 0 -5 -6 -7 -12 -4 -7 4 -5 0 5 -8 14 -11 15 -16 5 -20 -10 -4 -10 -7 1
-15 8 -6 11 -17 8 -26 -4 -9 -1 -16 6 -16 8 0 8 -3 2 -8 -6 -4 -10 -14 -10
-22 0 -8 -4 -19 -10 -23 -5 -5 0 -6 12 -2 20 5 22 3 20 -27 -1 -18 -6 -36 -12
-40 -6 -4 -2 -8 8 -8 9 0 17 -4 17 -10 0 -5 -4 -10 -10 -10 -5 0 -10 -4 -10
-10 0 -5 7 -10 16 -10 14 0 14 -3 4 -15 -9 -11 -9 -15 -1 -15 7 0 10 -4 6 -9
-3 -6 2 -14 12 -19 14 -8 15 -13 5 -25 -10 -11 -9 -17 4 -27 8 -8 13 -22 11
-32 -3 -11 0 -18 10 -18 10 0 13 -6 9 -15 -3 -9 1 -18 9 -21 9 -4 13 -15 11
-29 -3 -16 0 -22 8 -19 7 3 12 -5 13 -17 1 -12 7 -25 14 -29 6 -4 9 -12 5 -18
-3 -5 1 -13 10 -16 10 -4 14 -13 10 -22 -3 -8 3 -25 14 -36 14 -15 17 -25 10
-34 -8 -8 -4 -13 15 -18 16 -4 25 -13 25 -26 0 -11 5 -20 11 -20 5 0 7 -4 4
-10 -3 -5 3 -15 15 -22 11 -7 20 -20 20 -29 0 -9 7 -20 16 -23 8 -3 13 -10 10
-14 -3 -5 4 -18 14 -30 11 -12 20 -26 20 -33 0 -6 8 -9 19 -6 10 2 18 -1 18
-7 -1 -33 4 -47 15 -44 16 6 41 -19 33 -32 -3 -5 1 -10 10 -10 9 0 14 -4 10
-10 -3 -5 6 -17 20 -26 14 -9 25 -22 25 -29 0 -7 6 -13 13 -12 38 1 49 -4 43
-19 -7 -17 19 -43 42 -44 18 0 43 -26 34 -35 -4 -4 0 -5 8 -4 8 2 29 -11 47
-29 17 -18 33 -28 35 -22 2 6 22 -7 45 -28 23 -22 39 -44 35 -48 -4 -5 1 -3
10 4 14 11 18 10 28 -7 6 -12 18 -21 28 -21 9 0 29 -11 44 -25 17 -16 39 -25
58 -25 23 0 33 -5 37 -19 3 -11 17 -21 32 -24 34 -7 73 2 65 14 -3 5 -11 6
-17 2 -7 -4 -6 1 2 11 14 16 16 16 29 -9 7 -15 11 -32 9 -39 -3 -7 -1 -19 4
-27 6 -9 9 -10 9 -2 0 7 7 10 16 6 13 -5 15 -2 10 15 -4 11 -3 23 2 26 5 3 10
-6 10 -19 0 -14 -5 -28 -10 -31 -14 -9 38 -45 56 -38 9 3 16 1 16 -5 0 -6 6
-11 14 -11 8 0 16 -5 18 -12 2 -6 13 -12 24 -13 41 -5 88 -16 121 -30 20 -8
43 -15 52 -16 9 0 38 -11 66 -24 31 -14 54 -20 61 -14 6 5 15 4 22 -3 7 -7 12
-9 12 -5 0 4 14 0 31 -8 17 -9 33 -14 37 -11 3 3 11 1 19 -6 7 -6 16 -8 20 -5
3 4 13 1 21 -5 8 -7 47 -16 86 -20 39 -4 92 -10 119 -13 29 -3 47 -2 47 5 0 6
10 4 23 -5 13 -8 27 -12 30 -9 4 4 13 1 21 -5 11 -10 17 -8 25 6 6 10 11 13
11 7 0 -17 54 -12 62 6 5 12 7 11 7 -4 1 -13 6 -16 18 -12 9 4 19 2 23 -4 5
-7 15 -8 33 -1 14 6 29 7 31 2 3 -4 40 -7 83 -6 47 1 81 -3 86 -9 5 -8 10 -7
16 3 7 11 9 11 14 0 4 -12 7 -11 16 1 9 13 11 12 11 -5 1 -20 1 -20 15 -1 15
20 15 20 31 0 8 -10 13 -14 10 -7 -4 6 -2 14 4 18 5 3 10 1 10 -6 0 -6 8 -9
20 -6 10 3 21 0 24 -7 3 -7 5 -7 5 2 1 10 5 10 21 0 16 -10 25 -9 49 5 21 12
32 14 37 6 4 -8 9 -7 15 2 7 11 9 11 9 1 0 -15 51 -5 63 12 4 7 10 8 15 1 9
-13 42 -16 42 -4 0 5 9 9 19 9 11 0 22 6 24 13 4 10 6 10 6 0 1 -19 21 -16 21
3 0 8 5 12 10 9 6 -4 8 -10 6 -14 -3 -4 1 -8 9 -8 8 0 15 7 15 16 0 13 2 13 9
2 7 -11 13 -10 35 4 14 10 26 22 26 28 0 5 8 3 19 -7 10 -9 25 -14 35 -10 10
4 16 1 16 -7 0 -9 14 -15 36 -17 19 -1 44 -7 54 -12 11 -6 21 -6 24 -1 5 8 41
8 41 0 0 -1 35 -3 78 -4 42 -1 77 1 77 5 0 3 -16 12 -36 19 -19 7 -39 22 -44
34 -7 18 -9 19 -9 4 -1 -16 -3 -16 -31 -2 -16 8 -33 16 -37 16 -20 3 -50 19
-70 38 -12 12 -25 21 -28 21 -4 0 -32 18 -62 40 -31 22 -60 37 -65 34 -5 -4
-17 4 -25 16 -12 17 -17 19 -24 9 -6 -10 -9 -8 -9 8 0 15 -5 21 -13 17 -16 -6
-83 53 -73 63 4 4 20 -8 36 -26 17 -18 30 -29 30 -25 0 4 -9 17 -20 29 -11 12
-18 29 -15 37 6 14 71 48 93 48 7 0 12 5 12 11 0 5 5 7 11 4 6 -4 8 -14 4 -22
-4 -13 -3 -13 9 -4 9 8 15 8 18 1 1 -5 12 -12 24 -14 11 -2 37 -11 58 -20 21
-9 43 -13 49 -9 5 3 7 1 3 -5 -5 -9 47 -56 64 -57 13 -1 145 -69 148 -77 2 -4
18 -8 35 -8 27 1 29 2 15 11 -10 5 -18 15 -18 22 0 7 4 6 11 -3 8 -12 9 -10 7
10 -2 18 -15 31 -47 47 -24 12 -52 31 -62 42 -10 11 -28 22 -39 26 -13 4 -19
12 -16 21 3 7 0 16 -6 20 -7 4 -8 3 -4 -4 4 -7 2 -12 -4 -12 -7 0 -9 7 -6 16
3 9 6 17 6 19 0 2 9 1 20 -2 11 -3 17 -9 14 -14 -3 -5 2 -19 12 -31 16 -23 16
-23 10 11 -5 29 -4 32 12 26 9 -3 54 -13 99 -22 46 -8 81 -18 79 -22 -3 -4 4
-8 15 -8 17 -2 17 0 5 13 -8 8 -19 14 -24 14 -5 0 -13 11 -16 25 -8 33 -82
110 -89 93 -7 -21 -41 5 -49 38 l-7 29 4 -30 c1 -16 6 -41 10 -55 l6 -25 -13
23 c-13 21 -15 21 -31 5 -16 -16 -17 -15 -17 15 0 28 -2 31 -14 20 -8 -7 -11
-17 -8 -22 3 -5 0 -6 -6 -2 -9 5 -9 13 0 29 10 19 9 20 -4 9 -13 -10 -17 -10
-22 5 -6 14 -9 15 -15 4 -6 -9 -11 -10 -15 -2 -4 6 -2 11 4 11 7 0 10 6 7 13
-7 20 51 13 69 -9 14 -18 15 -18 9 3 -9 33 2 45 28 31 12 -7 25 -11 30 -10 4
1 7 -5 7 -14 0 -8 5 -12 10 -9 7 4 3 19 -10 40 -19 31 -20 34 -3 38 17 4 17 5
-1 6 -12 1 -16 6 -12 17 4 9 2 13 -5 8 -7 -4 -10 -1 -7 7 5 15 68 22 68 8 0
-5 -10 -9 -22 -9 l-23 -1 21 -17 c11 -10 20 -25 18 -35 -1 -10 4 -17 14 -17
12 0 13 -3 5 -11 -8 -8 -6 -16 8 -30 10 -10 24 -19 30 -19 5 0 8 -4 4 -9 -3
-5 -1 -12 4 -16 6 -3 8 -12 4 -20 -3 -9 1 -15 11 -15 10 0 13 -6 10 -15 -4 -8
-1 -15 5 -15 6 0 11 -7 11 -15 0 -8 7 -15 15 -15 9 0 12 -6 9 -15 -4 -11 1
-15 17 -15 19 0 21 -2 9 -10 -13 -9 -10 -15 17 -39 31 -29 34 -45 7 -34 -8 3
-14 0 -14 -6 0 -6 9 -11 20 -11 12 0 20 -7 21 -17 0 -11 3 -13 6 -5 2 6 9 12
14 12 14 0 11 -28 -4 -33 -9 -4 -9 -6 1 -6 7 -1 15 6 18 14 4 8 10 13 15 10 4
-3 4 -17 -2 -31 -8 -22 -7 -25 5 -21 9 4 17 -2 21 -14 6 -17 9 -18 23 -7 13
11 15 10 9 -5 -4 -10 -3 -16 3 -12 5 3 16 -8 25 -25 11 -22 21 -30 32 -26 12
5 14 1 10 -14 -3 -11 -1 -18 3 -15 5 3 12 0 15 -6 4 -6 18 -8 31 -5 15 4 24 2
24 -5 0 -6 7 -8 16 -5 8 3 13 2 9 -3 -3 -5 10 -21 27 -35 18 -15 39 -31 46
-37 8 -7 12 -6 12 2 0 8 4 8 14 -1 9 -6 12 -19 8 -28 -5 -15 -3 -15 22 2 16
10 25 13 22 7 -4 -6 -3 -11 3 -11 5 0 18 -3 28 -6 14 -4 15 -4 4 4 -15 11 -5
36 10 26 6 -3 7 -19 4 -35 -4 -18 -3 -29 4 -29 6 0 11 7 11 16 0 8 5 12 10 9
14 -9 12 -21 -6 -39 -20 -20 -15 -20 25 0 20 10 30 21 27 30 -3 8 -1 14 5 14
7 0 9 -10 4 -27 -5 -23 -4 -25 9 -14 11 9 16 10 16 2 0 -15 77 -14 86 1 7 11
8 23 5 91 -1 15 -13 29 -36 41 -37 20 -48 42 -16 31 29 -9 48 4 55 37 4 22 1
37 -11 50 -13 15 -14 21 -5 27 7 4 15 24 18 43 3 27 0 37 -13 42 -12 5 -14 9
-5 14 15 10 22 52 12 72 -5 9 -43 31 -84 49 -42 18 -76 38 -76 43 0 5 -4 7 -9
3 -14 -8 -75 24 -89 46 -8 12 -8 19 -2 19 5 0 10 -4 10 -10 0 -5 7 -7 15 -4 8
3 28 -1 45 -9 16 -9 30 -12 30 -7 0 4 20 6 45 3 43 -4 45 -3 43 21 -1 14 -6
26 -11 26 -5 0 -4 7 3 15 10 13 9 15 -9 15 -15 0 -21 6 -21 22 0 20 -1 20 -19
4 -14 -13 -21 -14 -26 -6 -4 7 -1 16 6 21 12 7 11 9 -2 9 -8 0 -20 -5 -27 -12
-9 -9 -12 -8 -12 4 0 9 6 19 13 21 9 4 9 6 -1 6 -7 1 -15 -6 -18 -14 -8 -21
-25 -8 -17 13 5 14 3 15 -8 4 -17 -16 -29 -15 -29 2 0 8 -8 13 -17 12 -11 0
-17 5 -15 13 2 8 -3 11 -11 8 -8 -3 -20 -1 -28 4 -11 7 -10 11 6 24 19 16 19
16 -3 5 -18 -9 -26 -8 -38 4 -8 9 -12 21 -8 27 4 8 3 9 -5 5 -13 -9 -41 10
-41 28 0 7 20 25 45 40 63 40 71 52 46 66 -12 6 -21 17 -21 25 0 7 -7 20 -15
28 -8 8 -16 21 -17 28 -2 8 -9 20 -15 27 -7 7 -13 23 -13 34 0 11 -8 27 -17
34 -29 21 -4 34 70 38 37 2 71 6 74 10 4 4 0 4 -10 0 -10 -3 -17 -1 -17 5 0 7
20 11 49 11 39 0 51 -4 54 -17 4 -17 5 -17 6 -1 1 11 12 20 29 23 15 4 34 10
43 15 10 5 21 4 28 -3 10 -9 12 -9 9 3 -2 8 3 15 10 16 6 1 17 2 22 3 21 2 9
31 -26 59 -22 18 -43 28 -55 25 -11 -3 -19 0 -19 6 0 8 -5 9 -18 2 -13 -7 -22
-7 -30 1 -6 6 -24 12 -39 14 -61 6 -96 14 -109 25 -8 6 -14 8 -14 4 0 -4 -7
-2 -15 5 -8 6 -19 9 -24 5 -7 -4 -8 1 -4 11 5 14 3 16 -11 11 -13 -5 -19 -1
-23 13 -4 16 -8 18 -20 9 -10 -9 -17 -9 -25 -1 -6 6 -17 8 -26 4 -11 -4 -14
-1 -9 12 4 10 3 15 -3 11 -6 -3 -10 3 -10 14 0 24 22 28 40 6 7 -8 16 -12 22
-9 5 3 18 -6 30 -21 16 -21 23 -24 29 -13 7 10 9 11 9 0 0 -7 4 -11 9 -7 5 3
13 0 16 -6 4 -5 13 -8 21 -5 8 3 14 0 14 -7 0 -9 2 -9 9 1 6 10 10 10 20 -2 7
-8 20 -12 28 -9 11 4 14 2 9 -5 -4 -7 -2 -12 3 -12 6 0 11 5 11 12 0 6 9 3 21
-8 12 -11 19 -13 17 -5 -4 18 33 41 39 23 3 -6 10 -9 16 -5 6 4 8 0 4 -10 -3
-10 -2 -17 3 -17 6 0 10 6 10 14 0 27 30 27 42 0 11 -24 13 -24 25 -8 10 13
15 14 27 5 11 -9 15 -8 20 4 3 8 13 15 21 15 9 0 13 5 10 10 -3 6 -1 10 4 10
6 0 11 8 11 18 0 16 -9 18 -81 16 -62 -1 -82 1 -86 13 -3 8 0 20 7 26 10 10
12 8 7 -5 -5 -13 -2 -17 13 -15 11 2 23 6 26 10 4 4 13 2 21 -4 9 -9 13 -8 13
0 0 15 27 14 33 -1 4 -10 6 -10 6 0 1 6 8 12 16 12 15 0 30 54 23 86 -3 20
-55 38 -61 21 -2 -6 -9 -7 -15 -3 -19 12 -14 25 11 24 54 -2 55 -1 56 57 0 31
3 60 6 64 3 5 -1 12 -7 15 -8 4 -9 8 -3 11 14 7 6 128 -9 138 -8 5 -7 10 4 16
21 14 24 116 4 136 -9 8 -21 12 -27 9 -7 -4 0 5 16 20 15 15 27 35 27 44 0 27
-15 43 -34 36 -15 -6 -15 -3 -4 22 7 16 18 39 26 51 15 25 9 97 -10 116 -19
18 -52 15 -56 -6 -2 -11 -9 -16 -18 -13 -8 3 -14 -1 -14 -9 0 -8 -4 -15 -10
-15 -5 0 -10 5 -10 10 0 18 -18 11 -23 -9 -3 -14 -11 -18 -25 -15 -12 4 -22 0
-25 -10 -4 -9 -13 -13 -22 -10 -10 4 -15 2 -13 -7 2 -8 -5 -14 -17 -14 -11 0
-24 -6 -28 -12 -4 -7 -17 -13 -28 -13 -10 0 -27 -9 -36 -19 -9 -11 -21 -17
-26 -14 -5 3 -12 1 -16 -5 -4 -7 -18 -14 -31 -16 -14 -2 -27 -5 -30 -6 -3 -2
-8 -2 -12 -1 -5 0 -8 -4 -8 -9 0 -6 -7 -10 -15 -10 -8 0 -15 -6 -15 -12 0 -9
-4 -8 -10 2 -7 12 -10 12 -10 1 0 -7 -6 -11 -15 -7 -8 3 -15 2 -15 -2 0 -4
-15 -14 -32 -21 -45 -18 -50 -20 -73 -23 -11 -2 -26 -9 -33 -15 -7 -7 -22 -13
-33 -13 -10 0 -19 -5 -19 -11 0 -6 -6 -9 -12 -6 -7 2 -27 -2 -44 -9 -17 -7
-34 -10 -38 -7 -3 4 -6 0 -6 -7 0 -11 -3 -11 -12 -2 -16 16 -28 15 -28 -3 0
-11 -9 -14 -35 -10 -19 2 -35 0 -35 -5 0 -5 -8 -8 -17 -8 -10 1 -28 -2 -40 -6
-16 -5 -25 -2 -33 13 -9 18 -8 21 7 19 37 -3 54 2 47 14 -4 6 -3 8 3 5 9 -6
70 9 83 20 2 2 -2 9 -10 14 -11 8 -10 9 8 4 14 -4 24 -2 27 8 3 7 16 13 28 12
12 -1 28 7 35 17 7 10 17 16 22 13 4 -3 13 2 20 10 7 8 19 15 27 15 7 0 16 7
20 16 3 8 12 13 19 10 7 -3 17 1 21 9 5 7 15 15 23 17 8 2 21 9 28 16 8 7 18
10 23 7 5 -4 9 0 9 8 0 19 27 30 33 14 3 -7 13 -1 26 15 12 15 32 30 44 34 12
4 36 17 53 30 33 26 64 33 46 12 -11 -14 -5 -68 8 -68 5 0 11 -9 15 -20 6 -19
7 -19 33 5 15 14 30 25 33 25 12 0 29 66 30 120 1 14 5 33 10 42 11 21 59 24
59 4 0 -7 6 -19 14 -25 11 -9 15 -7 19 9 5 19 8 20 26 8 12 -7 21 -20 22 -28
1 -8 4 -4 8 10 6 19 3 29 -11 40 -15 12 -16 18 -6 28 10 10 8 14 -10 18 -12 4
-22 10 -22 14 0 4 25 31 55 59 83 78 88 89 90 189 0 48 -3 95 -8 105 -10 21 0
60 14 52 12 -8 4 148 -9 172 -10 17 -11 17 -18 -2 -4 -11 -16 -40 -27 -65 -11
-25 -19 -47 -18 -49 4 -6 -23 -20 -30 -15 -8 5 21 87 33 92 5 2 6 7 3 12 -6 9
23 99 39 119 8 11 8 13 -1 7 -16 -9 -16 -5 -3 28 16 43 28 29 24 -29 -4 -46
-1 -56 16 -65 20 -11 20 -8 19 327 0 292 -6 430 -22 506 -2 10 -16 24 -31 32
-36 19 -34 19 -28 -10 2 -14 0 -25 -6 -25 -7 0 -9 -34 -6 -102 7 -170 13 -283
14 -285 2 -4 2 -68 1 -130 -2 -60 -30 -104 -55 -84 -18 15 -22 36 -5 25 8 -4
9 0 4 15 -4 15 -3 19 7 16 10 -4 14 7 15 41 2 25 7 52 13 59 5 6 8 14 6 16
-10 11 -13 85 -4 96 8 10 6 13 -8 13 -13 0 -15 3 -7 11 9 9 8 15 -3 26 -8 8
-11 20 -8 26 4 7 -5 0 -20 -15 -14 -15 -26 -34 -26 -43 0 -8 -7 -15 -16 -15
-8 0 -13 -4 -9 -9 3 -5 -1 -16 -9 -24 -8 -8 -12 -17 -9 -21 4 -3 -4 -6 -16 -6
-12 0 -20 -4 -16 -9 3 -5 -6 -21 -20 -35 -14 -14 -25 -28 -25 -31 0 -3 -8 -14
-17 -25 -18 -18 -73 -38 -73 -25 0 7 45 69 73 99 9 11 17 25 17 32 0 7 8 18
18 23 15 9 15 12 2 21 -13 8 -13 10 3 10 9 0 17 7 17 16 0 9 5 12 11 8 9 -5
10 1 5 20 -5 20 -3 26 9 26 21 0 31 30 14 41 -11 7 -11 9 3 9 11 0 15 6 11 20
-4 16 -2 19 11 14 12 -5 15 -2 10 10 -3 9 -2 22 3 29 11 13 16 87 6 87 -13 0
-54 -57 -60 -83 -3 -16 -12 -31 -19 -34 -8 -3 -14 -14 -14 -24 0 -10 -9 -28
-20 -39 -12 -12 -18 -24 -16 -29 3 -5 -3 -16 -14 -26 -11 -10 -17 -22 -14 -26
3 -5 -1 -9 -9 -9 -10 0 -13 -7 -10 -20 3 -11 1 -20 -5 -20 -9 0 -25 -36 -23
-52 1 -5 -5 -8 -13 -8 -8 0 -18 -9 -21 -21 -6 -19 -11 -15 -36 30 -20 35 -36
51 -49 51 -23 0 -22 -10 7 -108 8 -30 12 -64 8 -79 -6 -25 -8 -23 -33 33 -15
32 -30 61 -34 62 -5 2 -8 8 -8 14 0 5 -11 24 -25 42 -14 18 -25 38 -25 44 0 6
-9 16 -21 22 -16 9 -18 14 -8 26 9 11 8 14 -9 14 -27 0 -45 23 -30 38 9 9 8
12 -4 12 -10 0 -33 24 -52 53 -19 28 -53 69 -76 91 -22 21 -39 41 -36 44 3 2
-9 19 -27 37 -18 18 -36 40 -42 50 -5 9 -17 17 -25 18 -8 1 -15 5 -16 7 -4 23
-27 48 -39 44 -10 -4 -15 0 -15 10 0 9 -7 19 -15 22 -8 4 -12 10 -10 15 6 9
-30 49 -45 49 -5 0 -10 -7 -10 -16 0 -9 -6 -14 -12 -11 -7 2 -12 14 -10 26 4
28 -16 53 -37 47 -19 -6 -88 54 -93 81 -2 13 -12 18 -36 16 -26 -1 -33 3 -38
23 -5 19 -9 22 -19 14 -10 -8 -15 -6 -20 9 -3 11 -12 18 -20 15 -7 -3 -16 3
-20 15 -4 14 -14 20 -28 18 -14 -1 -25 6 -32 21 -11 24 -25 30 -25 10 0 -7 -5
-5 -11 5 -5 9 -16 17 -24 17 -8 0 -20 9 -28 20 -8 12 -18 20 -23 19 -22 -6
-75 14 -70 26 5 14 -49 39 -64 30 -4 -3 -11 2 -14 11 -5 13 -9 14 -20 5 -11
-10 -16 -8 -21 9 -5 16 -10 18 -20 10 -10 -8 -15 -6 -20 10 -5 17 -10 19 -21
9 -11 -9 -15 -8 -20 6 -5 13 -9 14 -15 3 -6 -10 -9 -8 -9 7 0 16 -2 17 -10 5
-8 -13 -11 -12 -24 5 -12 15 -15 16 -16 5 0 -13 -2 -13 -9 0 -6 8 -7 18 -4 24
3 5 1 6 -5 2 -7 -4 -12 -2 -12 4 0 6 -4 8 -10 5 -10 -6 -66 20 -88 41 -14 14
-26 18 -51 14 -8 -1 -17 4 -21 10 -4 6 -17 12 -28 13 -12 1 -22 5 -22 9 0 4
-7 5 -15 2 -8 -4 -15 -2 -15 4 0 6 -11 9 -25 7 -16 -1 -25 3 -25 11 0 8 -6 11
-15 8 -10 -4 -15 0 -15 11 0 13 -3 15 -13 7 -10 -9 -19 -8 -34 3 -12 8 -28 12
-36 9 -8 -3 -18 -1 -22 5 -3 6 -15 11 -26 11 -10 0 -28 6 -39 12 -16 10 -24
10 -40 0 -14 -9 -20 -9 -20 -1 0 8 -12 10 -35 6 -23 -4 -33 -2 -29 5 4 6 -1 8
-15 3 -13 -4 -21 -2 -21 5 0 7 -6 10 -14 7 -8 -3 -17 -3 -21 1 -3 4 -25 7 -48
8 -23 1 -78 5 -122 7 -44 3 -107 2 -140 -3z m158 -137 c-7 -2 -13 -12 -13 -20
0 -12 3 -13 14 -4 11 9 15 5 20 -24 4 -19 4 -40 1 -45 -11 -18 -34 -10 -38 13
-3 17 -5 16 -6 -8 l-1 -29 -16 22 c-12 18 -13 26 -4 37 7 8 10 20 8 27 -5 14
20 38 37 37 6 0 4 -3 -2 -6z m67 -23 c5 0 12 4 15 10 6 10 92 6 129 -6 12 -4
16 -2 12 5 -5 7 -1 9 8 5 9 -3 13 -11 9 -18 -4 -6 1 -5 10 3 13 11 17 11 17 1
0 -8 3 -10 7 -7 3 4 12 -1 20 -11 8 -9 12 -11 8 -4 -4 8 3 12 25 12 27 0 30
-2 20 -19 -5 -11 -10 -26 -9 -33 0 -7 4 -3 9 10 5 12 14 22 21 22 6 0 9 7 6
14 -4 10 -1 13 9 9 10 -4 14 -14 11 -29 -2 -13 0 -24 4 -24 8 0 13 14 11 31
-1 12 42 2 46 -10 3 -10 6 -10 12 -2 3 7 14 9 23 5 9 -3 14 -11 11 -16 -4 -6
-10 -5 -16 3 -6 10 -7 7 -3 -8 3 -13 2 -23 -3 -23 -6 0 -8 -10 -6 -22 2 -13 1
-17 -2 -10 -5 10 -9 10 -20 1 -10 -8 -14 -8 -14 0 0 6 -5 11 -11 11 -5 0 -7
-5 -3 -12 5 -7 2 -9 -8 -5 -9 3 -22 0 -29 -6 -7 -7 -5 -2 6 11 18 22 18 23 0
16 -14 -6 -16 -4 -10 6 5 9 4 11 -4 6 -6 -4 -9 -10 -7 -14 2 -4 -7 -8 -21 -8
-18 -2 -23 2 -18 13 4 12 3 13 -8 5 -8 -7 -18 -8 -22 -4 -5 4 -5 1 -1 -5 4 -8
1 -13 -9 -13 -9 0 -13 -4 -10 -10 3 -6 -1 -7 -10 -4 -13 5 -13 9 -3 22 11 13
10 15 -10 9 -19 -4 -22 -2 -18 11 5 13 2 12 -10 -3 -16 -19 -16 -19 -10 7 7
31 -6 44 -24 23 -7 -8 -16 -13 -20 -10 -5 3 -11 1 -15 -5 -4 -6 -10 -8 -15 -5
-5 3 -14 -4 -20 -15 -10 -18 -14 -19 -28 -8 -10 8 -13 9 -9 1 4 -6 2 -15 -4
-19 -7 -4 -10 -3 -7 2 3 5 2 18 -3 29 l-8 20 -1 -20 c-1 -11 -10 5 -20 34 -12
41 -14 58 -6 67 9 9 12 9 14 -2 2 -8 7 -14 12 -14z m-122 -26 c-2 -11 -10 -18
-18 -16 -10 2 -11 0 -2 -11 9 -11 8 -14 -3 -14 -19 0 -19 17 0 43 8 12 13 24
11 26 -1 3 1 2 7 -2 5 -4 7 -16 5 -26z m-228 -18 c0 -6 -4 -17 -9 -24 -7 -11
-10 -10 -15 3 -9 25 -7 32 9 32 8 0 15 -5 15 -11z m57 -8 c-3 -8 -6 -5 -6 6
-1 11 2 17 5 13 3 -3 4 -12 1 -19z m100 0 c-3 -8 -6 -5 -6 6 -1 11 2 17 5 13
3 -3 4 -12 1 -19z m633 -30 c-19 -21 -20 -21 -14 -3 10 26 28 45 32 34 2 -4
-6 -19 -18 -31z m-851 -1 c0 -13 -3 -16 -6 -8 -5 11 -7 11 -14 0 -7 -11 -9
-10 -9 4 0 9 5 17 11 17 5 0 7 5 3 12 -4 7 -3 8 4 4 7 -4 12 -17 11 -29z m78
1 c-3 -7 -5 -2 -5 12 0 14 2 19 5 13 2 -7 2 -19 0 -25z m-143 -3 c3 -8 1 -15
-4 -15 -6 0 -10 7 -10 15 0 8 2 15 4 15 2 0 6 -7 10 -15z m966 -7 c0 -18 -2
-20 -9 -8 -6 8 -7 18 -5 22 9 14 14 9 14 -14z m105 2 c0 -7 -6 -15 -12 -17 -7
-3 -13 0 -13 6 0 6 -7 8 -15 5 -9 -4 -15 0 -15 7 -1 9 -6 7 -15 -5 -12 -15
-15 -16 -15 -5 0 23 6 26 48 24 24 0 37 -6 37 -15z m55 0 c8 -5 11 -10 5 -10
-5 0 -2 -5 8 -11 13 -8 21 -6 33 5 17 18 44 21 44 7 0 -5 9 -13 20 -16 11 -3
20 -13 20 -21 0 -8 3 -14 8 -14 4 0 18 -10 32 -22 22 -21 37 -26 77 -30 7 -1
14 -7 17 -14 3 -9 -11 -12 -55 -10 l-59 2 0 -30 c0 -17 -1 -44 -4 -61 -2 -16
-4 -35 -5 -42 -2 -19 -40 -2 -62 28 -14 20 -29 29 -48 29 -16 0 -58 11 -94 25
-36 13 -88 27 -116 31 -28 4 -51 11 -51 16 0 5 -4 7 -9 4 -5 -4 -22 0 -38 8
-15 8 -39 19 -53 25 -21 8 -14 10 40 11 79 1 118 5 125 12 6 5 38 3 128 -7 57
-7 66 -3 60 29 -4 18 -14 27 -34 31 -16 4 -29 13 -29 21 0 16 18 18 40 4z
m-1165 -32 c6 -4 0 -8 -12 -8 -16 0 -21 4 -16 15 3 9 8 12 12 8 3 -4 11 -11
16 -15z m775 2 c0 -5 -5 -10 -11 -10 -5 0 -7 5 -4 10 3 6 8 10 11 10 2 0 4 -4
4 -10z m620 -45 c0 -5 -5 -3 -10 5 -5 8 -10 20 -10 25 0 6 5 3 10 -5 5 -8 10
-19 10 -25z m-1480 5 c0 -5 -2 -10 -4 -10 -3 0 -8 5 -11 10 -3 6 -1 10 4 10 6
0 11 -4 11 -10z m780 -44 c0 -3 -4 -8 -10 -11 -5 -3 -10 -1 -10 4 0 6 5 11 10
11 6 0 10 -2 10 -4z m-596 -21 c-4 -8 -1 -15 5 -15 6 0 11 -7 11 -15 0 -8 5
-15 10 -15 13 0 13 6 0 30 -7 13 -6 21 2 26 7 4 10 4 6 -1 -8 -9 15 -35 31
-35 13 0 14 -10 2 -29 -5 -8 -19 -12 -35 -9 -20 4 -26 1 -26 -13 0 -21 -15
-25 -26 -7 -4 7 -3 8 4 4 7 -4 12 -2 12 3 0 6 -11 11 -25 11 -14 0 -23 -5 -21
-12 1 -7 1 -10 -1 -5 -3 4 -15 7 -27 7 -13 0 -25 3 -29 6 -9 10 15 43 28 38
19 -8 65 14 65 31 0 8 4 15 10 15 5 0 7 -7 4 -15z m207 -9 c-9 -11 -8 -17 4
-29 17 -17 20 -32 6 -22 -5 3 -12 1 -16 -5 -8 -13 -25 -13 -25 1 0 5 4 8 8 5
5 -3 9 1 9 8 0 8 -6 12 -14 9 -7 -3 -13 -9 -13 -15 0 -5 -4 -7 -9 -4 -5 3 -7
15 -4 26 3 11 9 17 14 15 4 -3 16 3 26 13 20 21 32 20 14 -2z m99 14 c0 -5 -5
-10 -11 -10 -5 0 -7 5 -4 10 3 6 8 10 11 10 2 0 4 -4 4 -10z m372 -11 c9 -5
28 -9 42 -9 14 0 26 -4 26 -9 0 -15 -20 -24 -33 -14 -21 16 -87 34 -97 28 -5
-3 -10 1 -10 10 0 12 6 14 28 9 15 -4 35 -11 44 -15z m-592 1 c8 -5 12 -11 9
-14 -3 -3 -14 1 -25 9 -21 16 -8 20 16 5z m270 0 c0 -5 -7 -10 -16 -10 -8 0
-12 5 -9 10 3 6 10 10 16 10 5 0 9 -4 9 -10z m1022 3 c-6 -2 -10 -9 -6 -14 3
-5 -2 -9 -10 -9 -9 0 -16 4 -16 9 0 10 18 19 35 19 6 0 4 -2 -3 -5z m-1691
-10 c-11 -4 -11 -7 -1 -13 11 -7 10 -11 -1 -22 -8 -8 -22 -17 -31 -21 -10 -3
-18 -14 -18 -22 0 -22 -34 -15 -38 8 -3 12 1 15 14 10 12 -4 15 -3 10 6 -5 8
-1 14 13 18 12 3 21 11 21 18 0 13 16 23 35 23 6 0 4 -2 -4 -5z m54 -3 c3 -5
2 -10 -4 -10 -5 0 -13 5 -16 10 -3 6 -2 10 4 10 5 0 13 -4 16 -10z m1671 -6
c-3 -8 -2 -12 4 -9 11 7 46 -23 37 -31 -13 -13 -66 -12 -71 2 -3 8 -1 14 5 14
6 0 7 5 4 10 -8 12 2 30 17 30 5 0 7 -7 4 -16z m-1117 -10 c3 -3 -1 -10 -8
-17 -9 -9 -14 -9 -22 3 -8 12 -9 11 -5 -6 4 -13 2 -21 -7 -21 -7 0 -13 10 -12
21 1 12 -3 25 -9 29 -6 5 5 5 24 1 19 -3 37 -8 39 -10z m36 -2 c-3 -3 -11 0
-18 7 -9 10 -8 11 6 5 10 -3 15 -9 12 -12z m84 -3 c-12 -8 -6 -13 13 -11 3 1
12 -5 18 -13 7 -8 19 -15 27 -15 7 0 16 -7 20 -16 4 -11 8 -12 13 -4 8 14 30
5 30 -11 0 -6 -4 -7 -10 -4 -6 4 -8 -13 -5 -47 l5 -53 -30 35 c-22 26 -30 30
-30 18 0 -10 -4 -18 -10 -18 -5 0 -10 7 -10 16 0 8 -4 12 -10 9 -5 -3 -15 3
-22 14 -11 19 -14 19 -30 4 -10 -9 -18 -11 -18 -5 0 6 -3 18 -7 28 -5 13 -3
16 10 11 20 -8 22 4 5 22 -11 10 -9 15 6 27 15 10 16 14 5 14 -8 0 -20 -5 -27
-12 -9 -9 -12 -8 -12 7 0 10 3 16 6 13 3 -3 17 -3 32 2 31 8 51 2 31 -11z
m369 -1 c-6 -18 -28 -21 -28 -4 0 9 7 16 16 16 9 0 14 -5 12 -12z m462 2 c0
-5 -4 -10 -10 -10 -5 0 -10 5 -10 10 0 6 5 10 10 10 6 0 10 -4 10 -10z m-1120
-22 c0 -13 -23 -5 -28 10 -2 7 2 10 12 6 9 -3 16 -11 16 -16z m698 13 c10 -6
9 -11 -4 -22 -12 -9 -15 -10 -10 -1 4 6 2 12 -3 12 -6 0 -11 5 -11 10 0 12 10
13 28 1z m545 -16 c4 -8 -7 -15 -31 -19 -53 -8 -82 -7 -82 3 0 5 14 8 30 7 21
-2 30 2 31 13 0 11 2 12 6 4 2 -7 9 -13 14 -13 4 0 6 7 3 15 -4 11 -2 13 9 9
9 -3 18 -11 20 -19z m187 5 c0 -5 -7 -7 -15 -4 -8 4 -15 8 -15 10 0 2 7 4 15
4 8 0 15 -4 15 -10z m-671 -9 c8 -5 11 -16 8 -26 -9 -21 -28 -9 -20 13 4 13 2
13 -10 -3 -16 -20 -16 -20 -17 3 0 23 15 28 39 13z m-1045 -27 c3 -8 2 -12 -4
-9 -6 3 -10 10 -10 16 0 14 7 11 14 -7z m38 1 c0 -5 -5 -11 -11 -13 -6 -2 -11
4 -11 13 0 9 5 15 11 13 6 -2 11 -8 11 -13z m468 5 c0 -5 -4 -10 -10 -10 -5 0
-10 5 -10 10 0 6 5 10 10 10 6 0 10 -4 10 -10z m603 -2 c12 -7 28 -13 35 -14
8 -1 21 -6 30 -10 9 -4 19 -8 22 -8 5 -2 93 -42 122 -57 10 -5 24 -9 31 -9 7
0 24 -10 37 -22 14 -13 28 -22 33 -20 9 3 89 -57 95 -70 2 -5 10 -8 19 -8 8 0
31 -16 49 -34 19 -19 44 -38 54 -41 11 -4 20 -12 20 -20 0 -7 14 -19 30 -27
17 -7 30 -21 30 -30 0 -9 5 -20 12 -24 7 -4 8 -3 4 4 -4 7 -3 12 2 12 16 0 22
-13 11 -27 -9 -10 -8 -13 2 -13 8 0 25 -18 38 -40 16 -25 28 -35 32 -28 4 7
13 -1 23 -21 9 -17 13 -31 9 -31 -4 0 1 -6 11 -13 9 -7 18 -22 18 -34 1 -11 7
-19 13 -17 6 3 17 -11 25 -31 7 -19 17 -35 22 -35 4 0 8 -9 8 -20 0 -11 -4
-20 -10 -20 -5 0 -10 -4 -10 -10 0 -5 13 -7 30 -3 25 5 29 3 24 -11 -3 -9 -10
-16 -15 -16 -18 0 -9 -19 12 -25 16 -5 20 -13 16 -31 -2 -13 0 -24 4 -24 15 0
45 -36 41 -48 -2 -7 3 -15 12 -18 9 -3 14 -9 11 -13 -2 -4 2 -19 10 -34 7 -14
11 -28 7 -31 -3 -3 0 -6 7 -6 7 0 11 -6 8 -14 -3 -8 1 -17 10 -20 12 -5 13 -9
4 -20 -8 -10 -9 -16 -1 -21 6 -3 8 -10 5 -15 -3 -5 -1 -11 4 -15 6 -3 8 -12 5
-19 -3 -7 2 -16 11 -20 10 -3 16 -15 14 -28 -3 -34 11 -76 28 -82 11 -5 12
-10 4 -19 -15 -19 9 -163 27 -159 9 2 9 -6 -3 -27 -11 -22 -12 -37 -5 -55 7
-18 6 -26 -1 -26 -8 0 -8 -4 -2 -12 13 -16 13 -48 0 -48 -6 0 -6 -5 0 -12 19
-25 0 -192 -21 -185 -6 2 -11 14 -10 25 0 12 -2 20 -4 17 -9 -9 -32 17 -32 35
0 10 -11 42 -24 70 -14 29 -22 59 -19 68 4 10 2 13 -5 8 -11 -6 -17 12 -13 37
0 4 -5 6 -11 5 -7 -2 -12 5 -10 15 2 9 -2 17 -8 17 -5 0 -10 10 -10 23 0 13
-13 43 -28 68 -35 56 -63 125 -54 134 4 4 0 5 -8 3 -8 -2 -14 5 -15 17 0 12
-6 19 -14 17 -9 -2 -11 3 -6 15 15 38 15 61 -1 67 -9 4 -13 13 -10 24 8 25
-20 62 -32 44 -7 -11 -11 -9 -15 8 -4 16 -2 20 10 16 8 -3 13 -3 11 1 -2 5
-12 27 -23 50 -10 23 -27 44 -37 46 -10 3 -18 10 -18 17 0 6 4 8 10 5 10 -6
-16 63 -31 81 -5 6 -5 15 -1 20 4 4 -1 2 -11 -6 -10 -7 -17 -9 -16 -4 4 22 -2
45 -10 40 -5 -3 -8 6 -8 19 0 26 -19 56 -33 52 -4 -1 -8 2 -8 6 -1 5 -11 18
-24 30 -13 12 -24 33 -25 47 -1 13 -9 30 -18 36 -8 6 -15 16 -15 22 0 6 -11
22 -25 36 -14 14 -25 30 -25 36 0 5 -5 10 -11 10 -6 0 -9 7 -5 15 3 9 0 15
-10 15 -8 0 -12 5 -9 10 3 6 -1 10 -10 10 -9 0 -14 4 -11 8 3 5 -2 19 -11 31
-12 18 -17 20 -24 10 -7 -11 -9 -10 -9 4 0 9 5 17 12 17 6 0 8 3 5 6 -4 4 -13
1 -21 -5 -10 -8 -16 -9 -21 -1 -3 5 -1 10 4 10 6 0 11 5 11 11 0 5 -4 7 -10 4
-5 -3 -10 -1 -10 5 0 6 -7 19 -16 27 -13 14 -17 14 -25 2 -8 -13 -13 -6 -10
14 0 4 -4 7 -10 7 -5 0 -7 5 -4 10 3 6 1 10 -5 10 -6 0 -16 11 -22 25 -8 18
-19 25 -40 25 -25 0 -28 3 -22 24 5 21 1 25 -26 31 -25 5 -31 11 -27 26 5 17
-4 24 -27 20 -5 -1 -6 8 -3 20 3 11 3 18 0 15 -4 -3 -17 1 -30 9 -13 9 -28 13
-33 10 -6 -3 -10 1 -10 9 0 9 -4 16 -8 16 -5 0 -14 10 -21 23 -11 22 -11 22
-6 -3 5 -20 4 -22 -5 -8 -11 18 -4 48 12 48 5 0 19 -5 31 -12z m632 -63 c-18
-14 -18 -16 -4 -25 9 -5 20 -22 23 -36 8 -29 -10 -132 -26 -151 -13 -17 -51
-1 -88 37 -16 16 -33 30 -37 30 -5 0 -23 14 -41 30 -18 17 -39 30 -47 30 -7 0
-15 7 -19 15 -3 8 -11 12 -19 9 -8 -3 -18 5 -25 18 -8 18 -11 19 -11 6 -1 -17
-2 -17 -21 -1 -21 18 -27 53 -10 53 6 0 10 -8 10 -17 0 -11 3 -14 8 -7 4 6 36
12 72 13 36 1 91 6 122 11 35 7 65 7 75 2 10 -5 24 -7 31 -5 10 4 9 10 -5 27
-16 20 -16 20 7 -1 24 -22 24 -23 5 -38z m-1981 38 c3 -4 -11 -21 -31 -39 -22
-19 -40 -28 -42 -22 -2 6 6 20 19 30 12 10 19 18 16 18 -4 0 -4 5 -1 10 7 11
28 13 39 3z m2036 -33 c8 12 10 11 10 -5 0 -15 2 -17 9 -6 5 7 11 9 14 4 8
-13 -9 -37 -22 -29 -7 5 -9 0 -6 -11 3 -10 0 -8 -6 5 -7 12 -16 22 -21 22 -4
0 -8 12 -7 28 l0 27 10 -25 c8 -20 12 -22 19 -10z m-1963 -16 c-3 -4 -2 -15 4
-25 7 -14 6 -19 -4 -19 -8 0 -13 9 -11 23 3 28 3 27 11 27 3 0 3 -3 0 -6z m39
-52 c-11 -10 -14 3 -8 33 l7 30 3 -28 c2 -16 1 -31 -2 -35z m2010 16 c13 -13
24 -29 24 -35 0 -7 5 -13 10 -13 6 0 10 7 10 16 0 14 3 14 15 4 8 -7 15 -19
15 -26 0 -8 7 -14 15 -14 7 0 18 -6 22 -13 4 -8 23 -22 41 -32 31 -19 42 -35
22 -35 -5 0 -10 4 -10 8 0 4 -12 8 -27 7 -19 0 -27 5 -25 14 2 9 -3 11 -13 7
-13 -5 -15 -1 -10 15 5 14 3 19 -3 15 -6 -3 -13 3 -17 14 -7 22 -20 26 -30 10
-6 -10 -75 57 -75 73 0 13 11 8 36 -15z m-2201 2 c3 -5 1 -10 -4 -10 -6 0 -11
5 -11 10 0 6 2 10 4 10 3 0 8 -4 11 -10z m121 -38 c-4 -26 -24 -25 -22 1 0 14
6 23 13 20 6 -2 10 -12 9 -21z m-36 -42 c0 -5 -9 -14 -19 -19 -14 -8 -20 -7
-25 4 -3 8 -2 14 2 14 20 -3 23 3 11 18 -13 15 -12 15 9 4 12 -6 22 -16 22
-21z m-50 -39 c0 -14 -18 -23 -30 -16 -6 4 -8 11 -5 16 8 12 35 12 35 0z
m2298 -48 c12 -3 22 -10 22 -15 0 -12 -38 0 -65 20 l-20 14 20 -7 c11 -4 30
-10 43 -12z m-2338 3 c0 -2 -7 -7 -16 -10 -8 -3 -12 -2 -9 4 6 10 25 14 25 6z
m2474 -57 c-8 -13 -24 -1 -24 18 0 13 3 13 15 3 8 -7 12 -16 9 -21z m-119 -23
c18 -13 18 -14 -8 -9 -15 3 -30 9 -33 14 -8 14 20 10 41 -5z m-95 -23 c0 -20
-3 -24 -11 -16 -7 7 -9 19 -6 27 10 24 17 19 17 -11z m380 7 c0 -5 -5 -10 -11
-10 -5 0 -7 5 -4 10 3 6 8 10 11 10 2 0 4 -4 4 -10z m-91 -24 c8 -9 8 -16 2
-20 -6 -4 -15 3 -21 14 -12 23 2 27 19 6z m-749 -26 c0 -5 -5 -10 -11 -10 -5
0 -7 5 -4 10 3 6 8 10 11 10 2 0 4 -4 4 -10z m770 -22 c0 -16 -3 -19 -11 -11
-6 6 -8 16 -5 22 11 17 16 13 16 -11z m-330 -12 c0 -3 -4 -8 -10 -11 -5 -3
-10 -1 -10 4 0 6 5 11 10 11 6 0 10 -2 10 -4z m354 -41 c3 -8 1 -15 -3 -15 -5
0 -11 7 -15 15 -3 8 -1 15 3 15 5 0 11 -7 15 -15z m113 -231 c-3 -3 -12 -4
-19 -1 -8 3 -5 6 6 6 11 1 17 -2 13 -5z m-892 -15 c10 -14 1 -21 -19 -13 -9 3
-13 10 -10 15 7 12 21 11 29 -2z m48 -103 c-3 -5 -14 2 -24 15 -9 13 -15 28
-12 33 3 5 14 -2 24 -15 9 -13 15 -28 12 -33z m872 44 c3 -5 1 -10 -4 -10 -6
0 -11 5 -11 10 0 6 2 10 4 10 3 0 8 -4 11 -10z m-820 -30 c3 -6 -1 -7 -9 -4
-18 7 -21 14 -7 14 6 0 13 -4 16 -10z m-1675 -33 c0 -7 -9 -23 -21 -35 -11
-12 -17 -27 -14 -32 3 -6 -1 -7 -9 -4 -9 4 -18 -1 -22 -10 -3 -9 -12 -16 -20
-16 -8 0 -14 -3 -14 -8 0 -6 -53 -69 -108 -127 -10 -11 -37 -45 -59 -76 -35
-47 -80 -89 -97 -89 -18 0 41 123 78 163 14 15 26 31 26 34 0 11 53 68 62 66
4 -2 8 1 8 5 0 13 36 52 48 52 5 0 13 7 16 16 4 9 9 14 13 11 3 -4 14 3 24 15
11 11 19 18 19 14 0 -4 12 2 26 13 31 24 44 26 44 8z m1920 -141 c0 -5 -7 -3
-15 4 -8 7 -15 20 -15 28 0 13 3 12 15 -4 8 -10 15 -23 15 -28z m-1856 0 c-6
-16 -24 -23 -24 -8 0 10 22 33 27 28 2 -2 1 -11 -3 -20z m706 -16 c0 -5 -6
-10 -13 -10 -8 0 -22 -9 -32 -20 -20 -22 -39 -27 -33 -8 4 12 55 46 71 47 4 1
7 -3 7 -9z m-740 -9 c0 -12 -26 -32 -33 -25 -6 7 14 33 26 34 4 0 7 -4 7 -9z
m150 -11 c0 -12 -28 -25 -36 -17 -9 9 6 27 22 27 8 0 14 -5 14 -10z m3065 -30
c10 -11 13 -20 7 -20 -7 0 -12 -8 -12 -19 0 -23 -22 -42 -37 -33 -17 10 -4 55
13 48 10 -4 11 1 4 19 -11 30 0 32 25 5z m93 -22 c-2 -33 -7 -44 -23 -47 -17
-3 -17 -1 -6 12 7 9 10 21 6 27 -8 13 3 50 16 50 6 0 9 -19 7 -42z m-3353 22
c3 -5 2 -10 -4 -10 -5 0 -13 5 -16 10 -3 6 -2 10 4 10 5 0 13 -4 16 -10z
m2985 -20 c0 -5 -2 -10 -4 -10 -3 0 -8 5 -11 10 -3 6 -1 10 4 10 6 0 11 -4 11
-10z m-2360 -4 c0 -3 -4 -8 -10 -11 -5 -3 -10 -1 -10 4 0 6 5 11 10 11 6 0 10
-2 10 -4z m-670 -15 c0 -5 -7 -12 -16 -15 -24 -9 -28 -7 -14 9 14 17 30 20 30
6z m145 -1 c3 -5 1 -10 -4 -10 -6 0 -11 5 -11 10 0 6 2 10 4 10 3 0 8 -4 11
-10z m145 1 c0 -5 -12 -8 -26 -8 -18 0 -22 2 -13 8 18 11 39 11 39 0z m1709
-5 c9 -11 9 -16 -1 -22 -7 -4 -10 -4 -6 1 4 4 3 14 -3 22 -6 7 -9 13 -6 13 2
0 10 -6 16 -14z m-1879 -10 c0 -11 -19 -15 -25 -6 -3 5 1 10 9 10 9 0 16 -2
16 -4z m753 -13 c-7 -2 -19 -2 -25 0 -7 3 -2 5 12 5 14 0 19 -2 13 -5z m1167
-29 c0 -8 -4 -14 -10 -14 -5 0 -10 2 -10 4 0 2 -3 12 -6 20 -5 12 -2 15 10 10
9 -3 16 -12 16 -20z m-2116 -8 c-3 -9 -13 -16 -22 -16 -13 0 -12 3 4 19 22 21
27 21 18 -3z m136 20 c0 -2 -7 -6 -15 -10 -8 -3 -15 -1 -15 4 0 6 7 10 15 10
8 0 15 -2 15 -4z m2855 -6 c3 -5 1 -10 -4 -10 -6 0 -11 5 -11 10 0 6 2 10 4
10 3 0 8 -4 11 -10z m365 -8 c0 -5 -6 -17 -14 -28 -12 -15 -17 -16 -27 -7 -10
10 -9 15 1 28 13 16 40 21 40 7z m-2695 -36 c22 -4 54 -9 70 -12 17 -3 48 -8
70 -10 22 -2 63 -10 90 -17 41 -10 50 -16 49 -34 0 -12 3 -20 8 -17 4 3 8 15
8 26 0 19 4 20 64 16 41 -4 75 -13 93 -25 15 -11 37 -23 48 -26 47 -14 110
-39 165 -67 33 -17 66 -30 75 -30 8 0 15 -4 15 -10 0 -5 9 -10 20 -10 11 0 23
-7 27 -16 3 -8 12 -13 19 -10 7 3 18 -3 23 -12 6 -9 11 -14 11 -9 0 10 53 -24
63 -41 7 -11 11 -11 25 0 9 8 13 8 9 1 -12 -19 3 -41 24 -36 12 4 19 0 19 -9
0 -8 16 -20 35 -28 19 -8 35 -20 35 -27 0 -7 9 -13 21 -13 11 0 18 -4 15 -9
-6 -9 35 -48 132 -130 31 -26 51 -50 48 -58 -6 -15 10 -18 19 -3 11 18 27 -1
21 -25 -4 -14 0 -28 10 -36 8 -7 21 -26 29 -43 7 -17 14 -25 14 -18 2 24 20
11 37 -25 10 -21 24 -42 32 -47 8 -4 20 -23 28 -42 8 -19 18 -34 23 -34 23 0
122 -254 111 -285 -5 -15 -10 -13 -33 15 -15 17 -27 36 -27 41 0 5 -5 9 -11 9
-6 0 -22 14 -36 30 -13 17 -30 27 -36 23 -6 -4 -8 0 -5 9 4 8 2 21 -3 29 -7
11 -9 10 -9 -6 -1 -19 -1 -19 -15 -1 -7 10 -18 15 -23 12 -5 -3 -12 4 -15 15
-4 15 -2 19 10 15 8 -3 13 -1 11 5 -2 6 -7 9 -10 7 -12 -5 -37 36 -38 60 0 13
-6 22 -16 22 -19 0 -66 35 -57 43 3 4 -6 11 -20 16 -14 5 -28 14 -31 20 -8 12
-36 3 -36 -11 0 -6 8 -16 17 -23 30 -22 26 -52 -13 -74 -19 -12 -32 -26 -29
-31 3 -6 4 -10 1 -10 -21 0 -76 191 -60 209 6 7 34 -21 34 -34 0 -7 7 -18 15
-25 12 -10 18 -9 31 4 18 18 12 46 -10 46 -7 0 -16 9 -19 20 -3 11 -11 20 -19
20 -10 0 -10 -2 2 -10 8 -5 12 -12 8 -15 -3 -3 -17 5 -31 19 -14 14 -28 22
-33 18 -4 -4 -4 -1 0 6 11 18 -4 38 -16 21 -7 -11 -11 -11 -15 -1 -2 6 -8 10
-13 7 -4 -3 -6 4 -3 15 7 25 -12 26 -27 3 -10 -16 -11 -15 -7 4 3 12 -1 27 -9
34 -11 9 -14 7 -14 -10 0 -13 -4 -19 -11 -16 -6 4 -8 13 -5 20 5 14 -28 59
-38 53 -4 -2 -26 16 -51 40 -47 45 -61 52 -51 26 4 -11 1 -14 -12 -12 -9 2
-16 11 -14 20 1 9 -2 19 -8 23 -16 10 -12 -33 6 -60 9 -14 22 -25 29 -25 7 0
15 -7 19 -15 3 -8 11 -12 19 -10 8 4 20 -8 30 -27 10 -20 15 -24 11 -10 -3 12
-1 22 5 22 6 0 11 -7 11 -16 0 -20 25 -45 35 -36 5 4 5 -2 1 -13 -4 -11 -4
-16 0 -12 9 9 44 -22 44 -40 0 -7 -9 -13 -20 -13 -11 0 -20 -5 -20 -11 0 -5
-4 -8 -8 -5 -5 3 -25 -9 -46 -26 -20 -16 -39 -29 -40 -27 -2 2 -11 27 -19 56
-13 44 -14 58 -2 95 12 40 11 45 -5 56 -14 9 -21 8 -30 -3 -17 -20 -20 -19
-56 15 -18 16 -45 37 -61 47 -31 19 -91 65 -124 96 -18 16 -19 16 -19 -7 0
-13 7 -29 15 -36 8 -7 12 -17 9 -22 -3 -5 0 -8 7 -7 22 4 49 -12 49 -28 0 -9
6 -13 15 -9 10 4 15 -1 15 -14 0 -11 3 -20 8 -20 4 -1 18 -9 30 -20 l24 -20
-33 -27 c-18 -16 -40 -36 -48 -45 -19 -22 -31 -23 -31 -3 0 8 -6 15 -14 15
-17 0 -26 31 -26 92 0 37 -5 51 -20 60 -11 7 -20 20 -20 28 -1 9 -6 5 -15 -10
-12 -20 -14 -22 -15 -7 0 11 -9 21 -20 24 -12 3 -20 14 -20 27 0 34 12 39 31
15 l17 -23 -5 27 c-3 16 -1 27 6 27 6 0 11 -4 11 -10 0 -5 6 -10 13 -10 17 0
-35 46 -111 98 -41 29 -69 42 -80 37 -14 -5 -11 -9 13 -21 60 -29 88 -59 91
-97 2 -27 -1 -37 -11 -37 -8 0 -15 5 -15 10 0 6 -5 10 -11 10 -6 0 -30 16 -53
35 -24 19 -48 35 -55 35 -6 0 -21 10 -33 22 -14 14 -23 18 -26 10 -2 -7 13
-27 33 -45 48 -41 115 -107 115 -111 0 -6 -93 -96 -99 -97 -3 0 -16 -2 -27 -4
-18 -4 -22 2 -28 38 -14 88 -44 143 -47 85 -1 -20 -2 -21 -6 -3 -3 10 -12 29
-20 42 -9 13 -11 23 -7 23 5 1 -2 10 -15 20 -13 11 -20 20 -17 20 4 0 4 5 0
11 -3 6 -10 7 -15 2 -5 -5 -3 -38 6 -78 13 -63 13 -71 -2 -87 -13 -15 -14 -21
-4 -31 10 -9 11 -8 5 7 -5 13 -4 17 4 12 16 -10 15 -24 -2 -41 -12 -12 -16
-11 -31 5 -14 15 -15 23 -6 34 15 18 5 43 -20 49 -10 3 -19 12 -19 21 0 9 -5
16 -11 16 -6 0 -8 -9 -4 -20 4 -12 1 -27 -5 -35 -10 -12 -14 -12 -26 0 -30 30
5 82 45 67 11 -4 11 -1 2 16 -14 26 -27 28 -35 6 -5 -14 -9 -13 -26 7 l-20 24
8 -25 c6 -21 8 -80 3 -127 0 -7 -10 -13 -21 -13 -24 0 -63 -37 -55 -50 4 -6 1
-10 -4 -10 -14 0 -14 16 1 39 9 15 9 23 -1 35 -17 20 -26 20 -45 1 -13 -14
-15 -13 -15 2 -2 37 -8 69 -15 81 -10 17 -26 15 -26 -3 0 -8 -4 -15 -10 -15
-13 0 -13 37 1 46 8 4 8 9 0 17 -14 14 -14 44 1 53 8 5 9 2 5 -10 -4 -10 -3
-15 3 -11 12 7 13 35 2 35 -4 0 -13 -5 -20 -12 -16 -16 -28 -2 -35 39 -4 22
-3 32 5 30 6 -1 13 5 15 13 4 13 3 13 -6 0 -8 -12 -11 -12 -11 -1 0 11 -3 11
-15 1 -18 -15 -30 -8 -49 30 -8 17 -10 28 -5 25 5 -4 9 -1 9 5 0 7 7 9 16 6
12 -5 14 -1 9 15 -5 14 -3 19 3 15 13 -8 36 30 27 44 -9 14 8 13 22 -1 9 -9
10 -6 6 11 -4 16 -3 21 5 16 7 -4 15 0 18 8 3 9 14 16 24 16 11 0 21 4 25 10
10 16 -30 46 -60 46 -44 -1 -43 22 2 26 49 5 157 2 208 -6z m-259 -13 c-3 -4
-23 -8 -44 -9 -141 -10 -222 -11 -222 -3 0 8 56 12 209 17 35 1 61 -1 57 -5z
m-276 -24 c0 -4 -7 -6 -15 -3 -8 4 -15 10 -15 15 0 4 7 6 15 3 8 -4 15 -10 15
-15z m3198 2 c3 -8 -1 -12 -9 -9 -7 2 -15 10 -17 17 -3 8 1 12 9 9 7 -2 15
-10 17 -17z m-3238 -1 c0 -13 -11 -13 -30 0 -12 8 -11 10 8 10 12 0 22 -4 22
-10z m-60 -10 c0 -5 -2 -10 -4 -10 -3 0 -8 5 -11 10 -3 6 -1 10 4 10 6 0 11
-4 11 -10z m1470 0 c0 -5 -4 -11 -10 -11 -11 -2 -25 -5 -37 -9 -20 -6 -73 -4
-73 3 0 5 -4 5 -10 2 -5 -3 -17 -2 -26 3 -12 7 -8 9 16 10 18 0 35 3 38 6 10
10 102 6 102 -4z m1810 -20 c0 -11 -6 -20 -14 -20 -9 0 -12 -7 -9 -20 4 -14 0
-20 -11 -20 -8 0 -13 6 -11 13 19 54 26 67 35 67 5 0 10 -9 10 -20z m-40 -85
c0 -8 -9 -19 -20 -25 -23 -12 -25 -7 -10 21 13 22 30 25 30 4z m107 -101 c3
-9 2 -19 -3 -23 -5 -3 -9 -10 -10 -16 -3 -39 -44 -99 -44 -65 0 6 6 10 13 10
8 0 8 3 -2 9 -12 7 -10 15 6 42 11 19 18 40 16 47 -3 6 0 12 6 12 7 0 14 -7
18 -16z m-3907 -16 c19 -6 47 -20 63 -30 35 -25 73 -96 59 -110 -7 -7 -17 2
-29 27 -37 78 -146 100 -221 45 -23 -17 -42 -31 -42 -33 0 -1 -9 -27 -20 -57
l-19 -55 5 45 c10 95 18 120 37 120 6 0 18 6 26 14 23 21 67 43 88 43 10 1 34
-4 53 -9z m900 -30 c0 -13 -23 -5 -28 10 -2 7 2 10 12 6 9 -3 16 -11 16 -16z
m40 -36 c0 -7 -4 -10 -10 -7 -5 3 -10 16 -10 28 0 18 2 19 10 7 5 -8 10 -21
10 -28z m-657 1 c-18 -7 -16 -23 2 -23 9 0 12 -6 9 -15 -4 -8 -2 -15 4 -15 6
0 14 -14 17 -32 4 -17 16 -47 26 -65 10 -18 19 -36 20 -41 2 -6 14 -39 34 -87
5 -11 10 -29 11 -40 8 -51 17 -85 23 -85 4 0 7 -9 7 -20 0 -11 -4 -20 -8 -20
-4 0 -5 -6 -2 -13 3 -8 -7 -19 -22 -26 -15 -6 -24 -14 -21 -17 6 -7 -37 -54
-50 -54 -4 0 -24 -16 -43 -35 -19 -19 -40 -35 -47 -35 -7 0 -13 -4 -13 -10 0
-5 -9 -10 -19 -10 -11 0 -23 -5 -26 -11 -4 -5 -12 -8 -18 -6 -7 2 -20 0 -29
-5 -30 -15 -22 19 24 112 53 107 63 134 74 197 3 16 9 46 14 68 10 47 4 125
-14 204 -15 65 -5 91 34 90 14 0 19 -3 13 -6z m2817 -17 c0 -3 -4 -8 -10 -11
-5 -3 -10 -1 -10 4 0 6 5 11 10 11 6 0 10 -2 10 -4z m-2136 -25 c3 -5 -1 -12
-10 -15 -22 -9 -24 -8 -24 9 0 16 25 21 34 6z m2066 -1 c0 -5 -5 -10 -11 -10
-5 0 -7 5 -4 10 3 6 8 10 11 10 2 0 4 -4 4 -10z m830 -10 c0 -5 -4 -10 -10
-10 -5 0 -10 5 -10 10 0 6 5 10 10 10 6 0 10 -4 10 -10z m-2890 -30 c0 -5 -4
-10 -10 -10 -5 0 -10 5 -10 10 0 6 5 10 10 10 6 0 10 -4 10 -10z m2870 -2 c-1
-17 -49 -72 -57 -64 -3 3 4 15 16 25 12 11 22 22 22 25 -2 19 0 26 9 26 6 0
10 -6 10 -12z m-480 -23 c0 -14 -4 -25 -10 -25 -5 0 -10 11 -10 25 0 14 5 25
10 25 6 0 10 -11 10 -25z m600 -43 c-21 -32 -53 -70 -70 -87 -30 -28 -29 -24
14 42 25 39 46 75 46 80 0 16 22 32 36 26 9 -3 2 -21 -26 -61z m-3936 36 c22
-31 20 -52 -7 -84 -22 -25 -26 -26 -57 -15 -74 25 -90 69 -37 101 43 27 82 26
101 -2z m116 -50 c0 -34 -2 -59 -4 -57 -8 10 -13 129 -5 123 5 -3 9 -33 9 -66z
m2343 45 c-7 -2 -21 -2 -30 0 -10 3 -4 5 12 5 17 0 24 -2 18 -5z m142 -3 c3
-5 2 -10 -4 -10 -5 0 -13 5 -16 10 -3 6 -2 10 4 10 5 0 13 -4 16 -10z m-1618
-42 c-3 -8 -6 -5 -6 6 -1 11 2 17 5 13 3 -3 4 -12 1 -19z m2347 7 c-4 -8 -8
-15 -10 -15 -2 0 -4 7 -4 15 0 8 4 15 10 15 5 0 7 -7 4 -15z m-1714 -15 c0 -5
-2 -10 -4 -10 -3 0 -8 5 -11 10 -3 6 -1 10 4 10 6 0 11 -4 11 -10z m915 -30
c-5 -8 -11 -8 -17 -2 -6 6 -7 16 -3 22 5 8 11 8 17 2 6 -6 7 -16 3 -22z
m-2740 10 c3 -5 1 -10 -4 -10 -6 0 -11 5 -11 10 0 6 2 10 4 10 3 0 8 -4 11
-10z m3531 -27 c-11 -11 -19 6 -11 24 8 17 8 17 12 0 3 -10 2 -21 -1 -24z
m-1671 0 c4 -16 9 -50 12 -78 5 -42 3 -48 -8 -39 -8 6 -32 17 -54 24 -44 14
-98 58 -58 48 16 -4 28 4 49 33 34 46 49 49 59 12z m-505 -24 c0 -6 -4 -7 -10
-4 -5 3 -10 11 -10 16 0 6 5 7 10 4 6 -3 10 -11 10 -16z m-1048 -11 c-7 -7
-12 -8 -12 -2 0 14 12 26 19 19 2 -3 -1 -11 -7 -17z m1138 -13 c0 -5 -5 -3
-10 5 -5 8 -10 20 -10 25 0 6 5 3 10 -5 5 -8 10 -19 10 -25z m37 -7 c-3 -8 -6
-5 -6 6 -1 11 2 17 5 13 3 -3 4 -12 1 -19z m1636 -3 c-3 -8 -10 -15 -15 -15
-7 0 -6 5 1 13 6 8 7 18 3 22 -4 5 -2 5 5 1 7 -4 10 -13 6 -21z m682 -30 c17
0 33 -4 36 -9 8 -11 -9 -90 -21 -94 -5 -2 -6 -10 -3 -18 3 -8 0 -14 -7 -14 -7
0 -10 -7 -6 -16 4 -9 1 -24 -6 -32 -11 -14 -10 -15 7 -9 20 7 20 7 0 -8 -12
-10 -21 -12 -23 -5 -6 16 -22 12 -22 -6 0 -8 -4 -12 -10 -9 -5 3 -23 -1 -39
-10 -28 -14 -30 -14 -36 5 -4 11 -11 20 -17 20 -5 0 -8 6 -5 14 3 8 -3 22 -14
32 -10 9 -19 22 -19 27 0 6 -6 18 -14 26 -8 9 -18 28 -21 44 -7 24 -4 29 31
43 21 9 55 17 77 19 21 1 41 5 44 8 3 4 13 3 22 -1 9 -4 30 -7 46 -7z m-2298
-17 c-3 -8 -6 -5 -6 6 -1 11 2 17 5 13 3 -3 4 -12 1 -19z m1617 14 c2 -4 0
-14 -5 -22 -8 -13 -10 -13 -18 0 -10 15 -6 30 9 30 5 0 11 -4 14 -8z m851 -22
c-10 -11 -20 -18 -23 -15 -3 3 3 14 13 25 10 11 20 18 23 15 3 -3 -3 -14 -13
-25z m-1810 -1 c11 -33 12 -79 2 -79 -4 0 -5 -5 -2 -11 7 -11 -64 16 -78 30
-7 7 49 77 65 80 4 0 10 -9 13 -20z m-780 -29 c3 -6 -1 -7 -9 -4 -18 7 -21 14
-7 14 6 0 13 -4 16 -10z m1385 -10 c0 -5 -5 -10 -11 -10 -5 0 -7 5 -4 10 3 6
8 10 11 10 2 0 4 -4 4 -10z m-334 -69 c-3 -20 -1 -53 3 -73 l9 -38 -32 18
c-17 9 -35 23 -39 30 -4 6 -17 12 -28 12 -17 0 -18 3 -7 20 7 11 25 25 40 31
15 6 30 20 33 30 11 33 28 9 21 -30z m754 43 c0 -8 -19 -13 -24 -6 -3 5 1 9 9
9 8 0 15 -2 15 -3z m364 -46 c7 -5 4 -8 -6 -8 -10 0 -18 -4 -18 -10 0 -5 6 -7
14 -4 11 4 13 0 9 -18 -4 -18 -3 -20 6 -8 10 13 15 8 12 -12 0 -5 4 -8 10 -8
5 0 8 -4 4 -9 -3 -5 -1 -12 4 -16 12 -7 3 -34 -16 -53 -11 -11 -13 -11 -13 2
0 23 -17 20 -23 -4 -3 -14 -10 -18 -21 -14 -10 4 -24 -1 -34 -12 -9 -11 -28
-21 -42 -23 -14 -1 -28 -8 -32 -15 -4 -6 -8 -6 -8 -1 0 6 -6 3 -13 -5 -20 -24
-57 -43 -57 -28 0 6 -6 4 -13 -7 -8 -10 -19 -15 -25 -11 -7 4 -12 3 -12 -3 0
-6 -7 -8 -15 -5 -10 4 -15 0 -15 -11 0 -9 -4 -14 -9 -10 -5 3 -17 -2 -25 -11
-13 -13 -20 -14 -31 -4 -12 10 -15 9 -15 -9 0 -14 -6 -21 -20 -21 -11 0 -20
-7 -20 -15 0 -9 -6 -15 -12 -14 -7 1 -21 -1 -31 -6 -11 -4 -23 -3 -30 4 -9 9
1 23 41 61 28 27 52 47 52 45 0 -2 17 13 38 33 20 21 57 51 81 69 24 17 50 41
58 52 8 12 19 21 25 21 6 0 44 32 85 71 l75 71 16 -24 c9 -12 21 -26 26 -30z
m-390 6 c3 -8 2 -12 -4 -9 -6 3 -10 10 -10 16 0 14 7 11 14 -7z m-3764 -59 c7
-9 8 -15 2 -15 -5 0 -12 7 -16 15 -3 8 -4 15 -2 15 2 0 9 -7 16 -15z m3295
-66 c11 -17 -1 -21 -15 -4 -8 9 -8 15 -2 15 6 0 14 -5 17 -11z m20 -73 c9 -24
15 -53 13 -65 -3 -21 -5 -20 -60 14 -57 36 -72 55 -44 55 8 0 24 9 37 20 13
10 27 19 31 20 3 0 14 -20 23 -44z m-1655 11 c0 -14 -6 -24 -15 -24 -8 0 -15
4 -15 9 0 4 5 8 10 8 6 0 9 3 9 8 -2 12 1 22 6 22 3 0 5 -10 5 -23z m3110 -47
c0 -5 -5 -10 -11 -10 -5 0 -7 5 -4 10 3 6 8 10 11 10 2 0 4 -4 4 -10z m-27
-47 c-7 -17 -18 -7 -28 27 -8 25 -7 25 13 7 11 -11 18 -26 15 -34z m-47 2 c-1
-8 -6 -18 -11 -22 -4 -4 -5 -2 -1 5 5 7 1 12 -11 13 -16 0 -16 1 2 9 11 5 21
9 22 9 1 1 0 -6 -1 -14z m-1292 -11 c3 -8 2 -12 -4 -9 -6 3 -10 10 -10 16 0
14 7 11 14 -7z m-1824 -94 c0 -5 -5 -10 -11 -10 -5 0 -7 5 -4 10 3 6 8 10 11
10 2 0 4 -4 4 -10z m2770 0 c0 -5 -5 -10 -11 -10 -5 0 -7 5 -4 10 3 6 8 10 11
10 2 0 4 -4 4 -10z m-3893 -16 c-3 -3 -12 -4 -19 -1 -8 3 -5 6 6 6 11 1 17 -2
13 -5z m1143 -2 c0 -4 -10 -13 -22 -21 -23 -14 -23 -14 -4 8 20 22 26 25 26
13z m2704 -7 c-4 -8 -10 -12 -15 -9 -11 6 -2 24 11 24 5 0 7 -7 4 -15z m-2749
-5 c-3 -5 -12 -10 -18 -10 -7 0 -6 4 3 10 19 12 23 12 15 0z m-1075 -10 c0 -5
6 -10 13 -10 7 0 19 -9 27 -20 8 -11 18 -20 22 -20 5 0 29 -11 56 -24 244
-121 254 -128 216 -143 -14 -5 -122 42 -135 60 -3 5 -10 9 -15 9 -21 1 -52 18
-82 46 -32 30 -60 47 -74 44 -5 -1 -8 4 -8 11 0 7 -9 18 -20 25 -21 13 -27 32
-10 32 6 0 10 -4 10 -10z m3760 0 c0 -5 -2 -10 -4 -10 -3 0 -8 5 -11 10 -3 6
-1 10 4 10 6 0 11 -4 11 -10z m-470 -21 c0 -14 -17 -10 -23 5 -4 10 -1 13 9 9
7 -3 14 -9 14 -14z m430 11 c0 -5 -2 -10 -4 -10 -3 0 -8 5 -11 10 -3 6 -1 10
4 10 6 0 11 -4 11 -10z m-460 -20 c0 -5 -11 -9 -25 -8 -14 1 -25 6 -25 10 0 4
11 8 25 8 14 0 25 -4 25 -10z m-3065 -28 c-3 -3 -11 0 -18 7 -9 10 -8 11 6 5
10 -3 15 -9 12 -12z m60 -12 c3 -6 -1 -7 -9 -4 -18 7 -21 14 -7 14 6 0 13 -4
16 -10z m-240 -30 c3 -5 1 -10 -4 -10 -6 0 -11 5 -11 10 0 6 2 10 4 10 3 0 8
-4 11 -10z m372 -13 c6 -4 14 -1 17 5 3 10 9 8 19 -4 8 -10 17 -18 21 -18 12
0 43 -35 50 -55 11 -38 19 -143 13 -185 -2 -14 1 -35 6 -48 8 -18 8 -25 -3
-32 -20 -12 -33 -1 -19 16 9 11 8 14 -6 14 -11 0 -15 5 -11 15 3 8 1 15 -3 15
-5 0 -18 17 -28 38 -23 43 -53 55 -53 22 0 -18 -3 -20 -13 -11 -14 11 -27 5
-27 -13 0 -6 4 -5 9 2 7 11 9 11 14 -1 3 -9 -1 -18 -9 -21 -14 -5 -14 -8 0
-21 8 -9 13 -21 10 -28 -2 -7 5 -22 16 -32 16 -14 18 -20 8 -27 -10 -7 -10
-11 3 -21 9 -6 14 -18 11 -26 -2 -7 0 -16 5 -20 5 -3 17 -27 27 -53 12 -33 22
-45 32 -41 10 4 12 0 8 -10 -7 -19 14 -87 27 -87 5 0 9 -7 9 -16 0 -8 3 -13 8
-11 4 3 13 -1 19 -9 9 -9 9 -15 2 -20 -7 -4 -3 -15 11 -29 12 -13 19 -28 15
-34 -3 -6 1 -14 9 -17 9 -3 16 -12 16 -20 0 -8 5 -14 11 -14 5 0 7 -5 4 -11
-4 -6 3 -13 15 -16 15 -4 20 -11 17 -24 -3 -11 -1 -19 4 -19 5 0 9 -7 9 -15 0
-9 7 -18 15 -21 8 -4 15 -11 15 -18 0 -6 11 -21 23 -33 13 -11 34 -42 47 -69
23 -43 25 -45 30 -23 6 24 6 24 18 3 6 -12 9 -24 5 -27 -3 -4 1 -9 9 -12 10
-4 14 -14 11 -26 -3 -10 0 -19 6 -19 6 0 11 6 11 13 0 6 6 3 12 -8 6 -11 15
-22 18 -25 4 -3 9 -13 11 -23 2 -10 9 -18 14 -18 6 0 14 -7 18 -15 4 -8 14
-14 21 -14 7 0 26 -13 42 -30 16 -16 34 -30 41 -30 6 0 15 -5 19 -12 7 -11
-26 -8 -96 7 -14 4 -29 7 -35 8 -5 2 -16 6 -22 10 -7 5 -17 6 -22 2 -5 -3 -13
0 -16 6 -4 5 -14 8 -22 5 -8 -3 -24 1 -36 9 -12 8 -17 15 -12 16 6 1 -1 4 -15
8 -14 4 -24 13 -22 20 2 8 -4 10 -18 6 -11 -4 -20 -2 -20 4 0 6 -13 17 -30 26
-16 9 -30 22 -30 31 0 8 -11 19 -24 24 -13 4 -33 21 -45 37 -11 15 -25 33 -31
38 -5 6 -23 24 -40 40 -16 17 -30 35 -30 40 0 6 -9 17 -20 25 -11 8 -20 20
-20 28 0 7 -7 15 -15 18 -8 4 -15 12 -15 20 0 8 -4 14 -10 14 -5 0 -10 7 -10
15 0 8 -5 15 -12 15 -6 0 -8 3 -5 7 4 3 -7 20 -25 36 -21 21 -25 28 -12 24 18
-7 18 -6 2 6 -10 8 -15 17 -11 20 3 4 -1 7 -10 7 -10 0 -14 6 -11 13 3 8 -2
20 -10 27 -9 7 -13 17 -10 22 4 6 2 13 -3 17 -16 10 -64 102 -58 111 3 4 -2
11 -11 14 -8 3 -12 10 -9 16 3 5 1 10 -6 10 -7 0 -10 3 -7 6 10 9 -13 75 -33
97 -13 14 -16 24 -9 32 7 9 5 16 -5 25 -9 7 -13 21 -10 31 5 14 1 19 -11 19
-14 0 -15 3 -6 12 9 9 7 17 -9 34 -13 14 -17 24 -10 28 7 4 7 13 2 24 -16 31
-39 122 -32 122 5 0 27 -14 51 -31 52 -38 120 -69 175 -81 22 -5 47 -10 55
-12 8 -2 21 1 28 7 6 5 12 7 12 3 0 -4 11 1 25 10 54 35 37 125 -28 142 -17 4
-32 13 -34 19 -4 12 14 12 34 0z m1283 -11 c0 -2 -7 -17 -15 -32 -16 -30 -19
-25 -9 14 5 18 24 33 24 18z m12 -58 c-2 -10 -6 -18 -7 -18 -1 0 -5 8 -7 18
-3 11 0 19 7 19 7 0 10 -8 7 -19z m68 -22 c0 -2 -11 -6 -25 -8 -14 -3 -25 -1
-25 3 0 5 11 9 25 9 14 0 25 -2 25 -4z m-152 -46 c-7 -11 -15 -15 -17 -9 -2 6
3 15 10 20 20 12 21 11 7 -11z m-977 -125 c0 -10 5 -25 10 -32 6 -6 8 -16 5
-22 -3 -5 1 -12 10 -15 11 -4 14 -13 11 -28 -4 -12 -1 -28 5 -36 7 -8 13 -21
15 -31 5 -38 85 -191 118 -226 19 -22 35 -44 35 -50 0 -6 12 -22 27 -36 20
-18 25 -20 20 -6 -4 9 -2 17 3 17 5 0 13 -12 16 -26 4 -16 11 -23 21 -20 8 3
11 1 8 -4 -3 -5 22 -28 57 -49 35 -22 72 -47 83 -55 33 -23 10 -29 -29 -6 -20
11 -43 20 -51 20 -8 0 -15 4 -15 9 0 9 -33 23 -58 25 -7 1 -17 7 -21 15 -5 8
-16 11 -24 8 -8 -3 -24 5 -36 19 -11 13 -27 24 -35 24 -7 0 -16 10 -19 22 -4
12 -9 19 -13 15 -17 -17 -121 154 -129 213 -2 14 -10 45 -19 69 -8 25 -13 48
-10 53 3 4 1 8 -4 8 -5 0 -9 15 -10 33 0 17 -3 65 -7 106 -8 97 3 123 22 56 8
-27 14 -59 14 -70z m374 85 c-3 -5 -11 -10 -16 -10 -6 0 -7 5 -4 10 3 6 11 10
16 10 6 0 7 -4 4 -10z m85 -80 c0 -5 8 -11 18 -14 16 -6 56 -75 48 -84 -3 -2
-16 4 -30 14 -19 12 -25 22 -21 35 4 13 1 19 -9 19 -9 0 -16 4 -16 9 0 5 -9
13 -21 16 -14 5 -17 10 -10 19 7 8 1 15 -20 25 -23 10 -27 16 -19 26 9 11 18
7 46 -21 19 -20 34 -40 34 -44z m447 44 c-3 -3 -12 -4 -19 -1 -8 3 -5 6 6 6
11 1 17 -2 13 -5z m43 -44 c0 -5 -4 -10 -10 -10 -5 0 -10 5 -10 10 0 6 5 10
10 10 6 0 10 -4 10 -10z m54 -6 c3 -8 2 -12 -4 -9 -6 3 -10 10 -10 16 0 14 7
11 14 -7z m-1224 -14 c0 -5 -2 -10 -4 -10 -3 0 -8 5 -11 10 -3 6 -1 10 4 10 6
0 11 -4 11 -10z m2736 -17 c31 -36 30 -53 0 -53 -45 0 -52 -49 -13 -82 11 -10
18 -21 15 -24 -3 -3 -13 3 -22 12 -16 15 -18 15 -31 -2 -8 -11 -15 -14 -15 -7
0 6 5 15 10 18 15 10 12 23 -9 34 -16 9 -18 7 -15 -14 2 -19 -3 -25 -17 -25
-13 0 -17 -5 -12 -17 4 -11 3 -14 -5 -9 -7 4 -12 2 -12 -3 0 -6 -6 -11 -13
-11 -8 0 -19 -12 -25 -26 -7 -14 -17 -22 -22 -19 -7 4 -7 -2 -1 -18 6 -14 7
-29 3 -33 -4 -5 2 -2 12 6 18 14 18 13 12 -10 -6 -25 -6 -25 5 -2 7 12 21 22
33 22 14 1 31 16 50 46 22 35 31 42 42 34 17 -15 33 -5 44 26 11 28 26 31 38
7 10 -22 9 -32 -5 -59 -9 -16 -9 -24 0 -34 10 -10 8 -12 -7 -6 -17 6 -17 5 -5
-11 12 -15 12 -16 -3 -10 -10 3 -18 2 -18 -2 0 -5 6 -11 13 -14 9 -3 9 -7 -1
-19 -10 -13 -10 -17 0 -20 15 -5 19 -58 3 -59 -5 0 1 -5 15 -10 23 -9 23 -11
8 -20 -24 -13 -23 -29 1 -29 28 0 51 -10 51 -23 0 -8 -3 -8 -11 0 -14 14 -38
6 -62 -22 -10 -11 -16 -15 -13 -9 6 12 -28 26 -38 16 -3 -3 -20 -7 -37 -9 -26
-2 -30 0 -25 13 6 15 4 15 -10 3 -10 -8 -20 -13 -23 -13 -3 1 -5 -3 -3 -10 3
-8 0 -8 -9 1 -9 9 -16 7 -29 -9 -22 -28 -42 -15 -33 20 l6 27 -24 -29 c-22
-25 -28 -27 -47 -17 -20 10 -23 9 -32 -14 -5 -14 -15 -25 -22 -25 -10 0 -10 2
-1 8 6 4 11 23 10 42 -2 31 1 35 26 38 31 4 33 9 11 40 -8 12 -13 26 -10 31 3
5 -2 12 -11 15 -15 6 -14 9 8 24 22 15 25 21 17 49 -7 28 -11 31 -43 29 -20
-2 -54 0 -77 4 -43 8 -97 -2 -109 -21 -16 -26 3 -49 40 -49 20 0 43 -5 51 -11
11 -7 3 -9 -30 -7 l-45 3 -6 -43 c-3 -24 -3 -44 0 -46 3 -2 30 -11 59 -20 28
-10 52 -22 52 -28 0 -17 -92 -3 -106 16 -7 10 -18 14 -28 10 -9 -3 -23 -1 -31
6 -8 6 -18 9 -24 6 -5 -4 -17 2 -27 11 -12 13 -19 14 -22 5 -3 -9 -9 -9 -23
-1 -11 6 -17 15 -13 22 4 7 -1 4 -12 -5 -14 -12 -24 -14 -37 -7 -9 6 -21 7
-27 4 -12 -7 23 72 39 88 8 8 11 7 11 -3 0 -11 13 -15 48 -16 45 -1 47 1 47
27 0 21 -3 25 -12 17 -7 -6 -10 -15 -6 -22 4 -6 -1 -5 -10 3 -14 11 -20 11
-32 1 -12 -10 -15 -10 -15 2 0 20 -36 20 -54 -1 -9 -10 -16 -22 -15 -27 4 -21
-2 -35 -11 -29 -5 3 -7 0 -4 -8 5 -15 -22 -31 -37 -21 -5 3 -9 -2 -9 -10 0 -9
5 -16 12 -16 6 0 3 -10 -8 -22 -10 -12 -13 -18 -6 -14 7 4 12 2 12 -5 0 -6 8
-9 20 -6 11 3 22 1 25 -3 3 -5 13 -9 23 -9 9 0 28 -2 42 -4 14 -3 31 -5 38 -6
8 0 10 -6 6 -13 -6 -10 -4 -10 7 0 18 17 29 15 29 -4 0 -13 3 -14 14 -5 11 9
15 8 20 -5 5 -13 9 -14 21 -4 9 7 15 8 15 2 0 -5 10 -8 22 -4 14 3 19 2 14 -6
-4 -7 -3 -12 3 -12 5 0 13 5 16 11 5 6 12 3 21 -10 8 -11 21 -18 28 -15 8 3
24 1 35 -5 13 -7 22 -8 26 -1 3 5 11 10 16 10 6 0 7 -5 3 -12 -5 -8 -2 -9 9
-5 9 3 16 3 16 -1 -5 -28 5 -32 16 -7 l14 30 1 -45 c0 -33 3 -41 10 -30 9 13
11 13 19 0 9 -12 11 -12 17 3 5 14 9 15 20 6 8 -6 14 -8 14 -3 0 5 7 0 15 -10
8 -11 15 -16 15 -12 0 4 12 1 28 -7 29 -16 84 -39 92 -39 3 0 23 -10 45 -21
22 -12 44 -20 48 -19 17 5 67 -33 62 -46 -8 -22 5 -35 21 -21 25 20 29 0 4
-21 -22 -19 -39 -24 -67 -21 -6 1 -15 -4 -19 -10 -4 -7 -3 -9 3 -6 21 13 31
-17 12 -35 -13 -12 -19 -13 -23 -5 -3 8 -12 4 -25 -12 -12 -13 -21 -18 -21
-12 0 6 -8 11 -18 11 -33 0 -33 13 -1 41 l33 28 -37 21 c-20 12 -37 26 -37 31
0 5 -6 9 -13 9 -7 0 -29 16 -50 35 -21 20 -43 32 -51 29 -9 -3 -17 3 -21 15
-3 12 -12 21 -20 21 -7 0 -15 5 -17 12 -6 16 -52 16 -67 1 -6 -7 -10 -16 -9
-20 2 -4 -10 -12 -27 -17 -16 -6 -31 -11 -33 -12 -1 -1 2 -14 8 -29 8 -20 15
-25 28 -20 12 4 14 3 7 -4 -7 -7 -37 -4 -95 10 -47 11 -95 21 -107 21 -13 0
-23 5 -23 10 0 5 -5 6 -11 2 -6 -3 -15 0 -20 7 -7 12 -9 12 -9 0 0 -10 -3 -11
-14 -2 -7 6 -26 13 -42 15 -16 2 -53 13 -81 24 -29 11 -53 18 -53 14 0 -3 -5
-1 -12 6 -7 7 -23 12 -36 12 -13 0 -20 4 -17 10 3 6 -1 13 -9 16 -19 7 -12 52
13 74 26 24 19 44 -24 62 -70 29 -128 63 -133 78 -5 13 -3 13 13 0 16 -13 55
-30 117 -50 22 -7 30 -4 50 18 30 34 81 110 84 126 1 6 7 25 14 41 10 27 13
28 24 13 10 -13 15 -15 25 -5 9 9 16 9 31 -1 13 -8 21 -8 26 -1 3 6 12 8 20 5
7 -3 16 -1 19 5 4 5 11 7 16 3 5 -3 15 -1 22 4 7 5 31 13 55 17 23 4 42 10 42
13 0 4 15 13 33 21 91 37 138 63 144 77 3 8 11 13 17 11 7 -3 22 6 35 19 13
13 29 24 37 24 16 0 19 16 5 24 -5 4 -11 0 -14 -6 -2 -7 -8 -10 -12 -5 -5 4 0
14 11 22 15 11 21 12 29 1 8 -10 16 -7 40 16 17 15 26 28 20 29 -12 1 34 17
54 18 7 1 24 -11 37 -26z m954 17 c0 -5 -5 -10 -11 -10 -5 0 -7 5 -4 10 3 6 8
10 11 10 2 0 4 -4 4 -10z m-520 -10 c12 -8 11 -10 -7 -10 -12 0 -25 5 -28 10
-8 13 15 13 35 0z m550 0 c0 -5 -2 -10 -4 -10 -3 0 -8 5 -11 10 -3 6 -1 10 4
10 6 0 11 -4 11 -10z m30 0 c0 -5 -4 -10 -10 -10 -5 0 -10 5 -10 10 0 6 5 10
10 10 6 0 10 -4 10 -10z m56 -17 c-10 -10 -19 5 -10 18 6 11 8 11 12 0 2 -7 1
-15 -2 -18z m-535 -42 c23 -10 27 -16 19 -26 -9 -11 -19 -9 -55 13 -24 14 -41
30 -38 35 3 4 11 6 19 3 8 -3 15 0 15 7 1 7 3 5 5 -3 3 -9 18 -21 35 -29z m94
19 c3 -5 1 -10 -4 -10 -6 0 -11 5 -11 10 0 6 2 10 4 10 3 0 8 -4 11 -10z m75
-20 c0 -5 -4 -10 -10 -10 -5 0 -10 5 -10 10 0 6 5 10 10 10 6 0 10 -4 10 -10z
m57 -10 c22 0 30 -10 16 -23 -3 -4 -11 -3 -17 2 -11 9 -17 11 -36 11 -5 0 -10
8 -10 17 0 13 3 14 12 5 7 -7 22 -12 35 -12z m-3363 -15 c4 -14 4 -30 1 -35
-3 -5 -1 -11 5 -15 5 -3 10 -16 10 -28 0 -12 -4 -17 -8 -11 -16 16 -43 95 -37
105 11 16 23 10 29 -16z m646 15 c0 -5 -6 -10 -12 -11 -7 0 -3 -4 10 -9 23
-10 29 -25 12 -35 -5 -3 -7 0 -4 8 3 10 -4 17 -21 21 -22 6 -25 9 -15 21 14
17 30 20 30 5z m574 1 c3 -5 0 -14 -8 -20 -10 -9 -15 -8 -19 3 -9 22 15 37 27
17z m1176 -1 c0 -5 -4 -10 -10 -10 -5 0 -10 5 -10 10 0 6 5 10 10 10 6 0 10
-4 10 -10z m-36 -15 c-4 -8 -10 -15 -15 -15 -4 0 -6 7 -3 15 4 8 10 15 15 15
4 0 6 -7 3 -15z m256 7 c1 7 8 0 16 -15 14 -26 14 -30 -3 -42 -15 -12 -20 -12
-33 1 -13 13 -13 16 0 24 13 9 13 10 -1 10 -9 0 -16 7 -16 14 0 11 5 13 19 5
13 -7 18 -6 18 3z m-1469 -25 c-13 -13 -26 -3 -16 12 3 6 11 8 17 5 6 -4 6
-10 -1 -17z m1559 2 c0 -6 -4 -7 -10 -4 -5 3 -10 11 -10 16 0 6 5 7 10 4 6 -3
10 -11 10 -16z m552 -41 c4 -23 2 -25 -13 -17 -12 6 -16 16 -12 27 5 14 3 15
-8 5 -17 -17 -29 -16 -29 2 0 9 -6 12 -15 9 -18 -7 -20 7 -4 23 19 19 76 -16
81 -49z m166 50 c-6 -18 -28 -21 -28 -4 0 9 7 16 16 16 9 0 14 -5 12 -12z m42
-14 c0 -13 3 -14 15 -4 8 7 20 8 27 4 7 -5 20 -7 30 -6 9 2 19 -2 23 -8 5 -8
11 -7 21 1 12 10 18 9 31 -3 20 -21 7 -42 -21 -33 -22 6 -36 9 -96 20 -19 4
-36 11 -38 15 -2 5 -10 6 -18 3 -14 -5 -19 8 -7 20 12 13 33 7 33 -9z m-2394
-11 c-4 -4 -19 -9 -34 -10 -21 -3 -24 -1 -12 7 17 11 57 14 46 3z m-347 -39
c18 -19 30 -38 27 -41 -8 -9 -44 26 -52 49 -3 12 -12 17 -20 14 -9 -3 -12 -1
-9 4 10 16 20 12 54 -26z m1999 25 c-2 -6 -8 -10 -13 -10 -5 0 -11 4 -13 10
-2 6 4 11 13 11 9 0 15 -5 13 -11z m-1876 -49 c9 0 20 -5 24 -12 5 -7 2 -9 -9
-5 -11 4 -14 2 -10 -9 3 -7 12 -14 19 -14 8 0 17 -7 21 -16 4 -10 8 -12 12 -5
5 7 27 5 72 -8 35 -10 70 -16 77 -14 6 3 12 -1 12 -9 0 -10 3 -9 10 2 6 9 13
11 18 5 7 -9 18 -12 67 -17 11 -1 23 -7 27 -13 5 -7 8 -7 8 1 0 7 15 10 38 8
20 -2 72 -4 114 -4 71 -1 80 -4 109 -31 17 -16 33 -29 34 -29 9 0 105 -64 101
-67 -2 -2 -28 9 -57 26 -41 23 -58 27 -72 20 -18 -11 -37 -5 -37 12 0 5 10 9
22 9 l22 0 -22 16 c-18 13 -55 16 -180 18 -86 2 -168 5 -182 8 -28 6 -159 24
-232 32 -36 4 -47 2 -52 -11 -7 -18 2 -53 14 -53 7 0 18 -28 26 -67 1 -7 12
-26 24 -43 12 -17 23 -37 24 -44 1 -8 8 -21 15 -30 12 -15 10 -21 -13 -45
l-27 -28 55 -46 c30 -26 59 -47 65 -47 6 0 11 -4 11 -10 0 -5 5 -10 10 -10 6
0 23 -13 38 -28 15 -16 34 -26 41 -24 7 2 15 -5 18 -17 3 -11 14 -23 24 -26
12 -4 19 -16 19 -30 0 -26 15 -41 25 -25 3 5 1 10 -4 10 -6 0 -11 4 -11 9 0 5
6 9 13 8 37 -1 49 4 43 18 -6 16 9 21 18 6 9 -15 46 0 46 18 0 13 2 14 9 2 8
-12 13 -12 24 -3 8 7 21 10 29 7 9 -4 18 1 22 10 3 9 2 13 -4 10 -6 -3 -11 0
-12 7 0 7 -2 18 -3 23 -2 6 -3 16 -4 23 -1 16 -73 92 -87 92 -7 0 -19 12 -29
26 -9 14 -22 23 -30 21 -9 -4 -11 1 -8 14 6 21 -12 27 -20 7 -3 -8 -9 -2 -15
14 -12 30 -28 43 -37 29 -3 -6 -12 -8 -21 -4 -13 5 -12 7 2 18 11 8 13 14 6
19 -6 3 -13 2 -17 -4 -10 -16 -25 -12 -19 5 5 11 2 13 -10 9 -8 -3 -23 1 -31
10 -15 15 -14 16 7 16 l22 0 -22 16 c-12 8 -27 12 -34 8 -7 -5 -9 -2 -5 8 3
10 -3 19 -20 27 -15 7 -23 17 -19 26 3 10 0 12 -12 8 -14 -5 -15 -3 -5 7 10
11 22 11 69 0 31 -8 63 -20 70 -28 8 -7 14 -9 14 -3 0 6 9 11 20 11 14 0 18
-5 14 -17 -5 -17 -5 -17 6 0 13 21 50 23 50 3 0 -8 4 -17 9 -20 5 -4 7 2 4 12
-4 16 4 18 83 20 48 1 95 4 105 7 9 3 20 2 23 -4 3 -5 -6 -12 -22 -16 -15 -5
-34 -10 -42 -12 -18 -5 -35 -5 -78 0 -36 5 -44 -3 -49 -45 -2 -23 1 -28 15
-26 11 2 18 -5 20 -19 2 -14 10 -23 20 -23 10 0 23 -14 31 -32 8 -18 16 -27
18 -21 5 15 43 -6 43 -23 0 -7 6 -11 13 -11 24 2 97 -26 97 -39 0 -16 23 -24
40 -14 8 5 19 3 26 -3 38 -34 41 -36 53 -24 8 8 11 6 11 -7 0 -14 3 -16 13 -8
8 7 20 2 40 -19 16 -16 23 -29 18 -29 -6 0 -11 -5 -11 -11 0 -5 5 -7 10 -4 6
3 10 1 10 -4 0 -6 -7 -11 -15 -11 -8 0 -15 5 -15 10 0 18 -22 10 -27 -10 -6
-22 -18 -26 -28 -10 -5 8 -11 8 -20 0 -9 -8 -15 -8 -20 0 -10 16 -29 12 -42
-10 -11 -16 -10 -18 4 -13 13 5 15 2 11 -15 -5 -18 -3 -20 12 -12 14 7 20 5
25 -8 6 -16 7 -16 19 0 12 16 14 16 33 -1 11 -11 31 -21 44 -23 15 -2 23 -9
21 -18 -3 -12 -1 -13 9 -2 18 17 39 15 39 -4 0 -8 4 -13 9 -9 5 3 12 1 16 -5
3 -5 15 -10 26 -10 10 0 19 -4 19 -9 0 -5 8 -12 18 -15 9 -3 22 -16 27 -28 6
-13 18 -22 28 -21 12 0 16 -4 13 -12 -3 -9 0 -12 10 -8 7 3 14 0 14 -6 0 -6
-4 -11 -10 -11 -5 0 -10 -7 -10 -15 0 -8 -5 -14 -11 -12 -6 1 -27 -27 -46 -63
-20 -36 -40 -68 -46 -71 -5 -3 -8 -9 -8 -13 3 -18 -1 -24 -25 -34 -14 -7 -23
-16 -20 -21 3 -5 -5 -8 -19 -7 -14 0 -25 7 -25 14 0 7 -4 10 -10 7 -5 -3 -10
3 -10 14 0 12 -4 21 -9 21 -6 0 -28 26 -51 57 -23 32 -51 63 -63 70 -12 7 -18
12 -12 13 5 0 -1 7 -14 16 -15 11 -21 23 -18 36 4 15 2 17 -7 9 -9 -8 -17 -6
-30 7 -9 10 -13 22 -9 27 5 4 0 5 -9 2 -10 -4 -18 -3 -18 2 0 9 -77 36 -97 34
-7 0 -13 3 -13 8 0 7 -67 -16 -79 -27 -2 -2 2 -11 10 -20 13 -15 11 -17 -19
-12 -26 4 -32 2 -27 -10 4 -10 0 -13 -14 -9 -12 3 -22 -1 -25 -10 -5 -12 -9
-13 -21 -3 -12 10 -16 9 -21 -4 -5 -12 -10 -14 -19 -6 -9 7 -16 6 -24 -4 -13
-16 -77 -6 -74 12 2 6 -6 14 -17 17 -12 4 -17 12 -13 22 4 11 2 14 -5 9 -7 -4
-12 -1 -12 9 0 9 -6 22 -12 30 -29 30 -48 56 -46 63 4 14 -23 52 -38 52 -8 0
-14 6 -12 13 5 29 -27 87 -49 87 -5 0 -16 13 -26 29 -31 52 -67 45 -67 -14 0
-55 -76 -65 -240 -30 -14 3 -32 7 -42 8 -9 2 -22 8 -30 14 -13 10 -47 26 -60
27 -4 1 -12 6 -19 13 -6 6 -17 9 -23 7 -18 -7 -52 34 -39 47 8 8 13 8 17 0 4
-6 13 -11 20 -11 8 0 35 -10 62 -22 27 -12 54 -22 59 -23 6 0 35 -8 65 -18 30
-9 71 -19 90 -22 19 -3 36 -8 38 -10 3 -2 17 2 33 11 28 14 35 32 31 77 -1 11
3 17 10 14 7 -2 25 2 40 9 15 8 34 11 42 8 8 -3 38 6 65 21 40 22 48 31 42 44
-5 9 -18 37 -30 63 -11 26 -26 50 -32 53 -6 4 -8 13 -5 20 2 7 -2 16 -11 19
-9 4 -13 9 -10 12 3 3 -8 19 -24 35 -32 31 -36 41 -14 33 23 -9 39 43 26 87
-15 49 -16 48 27 33 20 -7 45 -13 54 -14z m1893 -18 c7 -41 16 -119 18 -155 1
-17 7 -25 14 -22 7 2 13 0 13 -5 0 -6 -5 -10 -11 -10 -6 0 -8 -8 -4 -19 5 -17
8 -30 18 -76 2 -5 6 -16 11 -24 5 -8 4 -16 -4 -21 -8 -5 -7 -9 6 -14 16 -6 16
-8 4 -16 -11 -7 -11 -10 -2 -10 7 0 12 -6 11 -12 -1 -7 4 -26 11 -43 12 -30
20 -65 23 -117 1 -14 5 -24 9 -22 10 7 22 -18 24 -49 1 -20 -2 -27 -11 -23 -8
3 -16 0 -18 -7 -2 -7 -8 -8 -13 -4 -4 4 -3 21 3 37 6 17 7 30 2 30 -5 0 -9 -8
-9 -17 0 -39 -20 8 -43 102 -14 55 -29 114 -33 130 -10 38 -13 59 -16 115 -2
25 -7 48 -12 51 -4 4 -3 16 3 27 7 12 7 22 1 24 -11 3 -24 164 -14 179 8 14
12 9 19 -29z m-1551 16 c7 12 66 -4 66 -18 0 -14 -18 -21 -25 -11 -3 6 -11 8
-19 5 -7 -3 -26 0 -41 6 -23 9 -26 13 -15 20 9 6 17 5 21 -2 5 -7 8 -7 13 0z
m-54 -8 c0 -5 -4 -10 -10 -10 -5 0 -10 5 -10 10 0 6 5 10 10 10 6 0 10 -4 10
-10z m260 -20 c0 -4 10 -6 21 -3 16 4 20 2 17 -8 -5 -15 -61 -16 -128 -4 -40
8 -44 10 -37 22 6 10 127 4 127 -7z m71 -13 c-1 -12 -15 -9 -19 4 -3 6 1 10 8
8 6 -3 11 -8 11 -12z m459 -1 c0 -3 -4 -8 -10 -11 -5 -3 -10 -1 -10 4 0 6 5
11 10 11 6 0 10 -2 10 -4z m-1231 -42 c3 -16 1 -17 -13 -5 -19 16 -21 34 -3
29 6 -3 14 -13 16 -24z m-411 -29 c-3 -3 -9 2 -12 12 -6 14 -5 15 5 6 7 -7 10
-15 7 -18z m1487 -5 l-20 -9 20 -1 c19 -1 19 -1 -2 -19 -16 -13 -19 -21 -11
-29 9 -9 4 -9 -19 -3 -18 5 -34 6 -38 3 -4 -4 1 8 12 25 17 31 31 40 63 41 9
0 7 -3 -5 -8z m-55 -10 c0 -5 -5 -10 -11 -10 -5 0 -7 5 -4 10 3 6 8 10 11 10
2 0 4 -4 4 -10z m-40 -10 c0 -5 -5 -10 -11 -10 -5 0 -7 5 -4 10 3 6 8 10 11
10 2 0 4 -4 4 -10z m-37 -17 c-7 -2 -21 -2 -30 0 -10 3 -4 5 12 5 17 0 24 -2
18 -5z m37 -23 c-19 -13 -30 -13 -30 0 0 6 10 10 23 10 18 0 19 -2 7 -10z
m-1322 -35 c-3 -3 -9 2 -12 12 -6 14 -5 15 5 6 7 -7 10 -15 7 -18z m1376 10
c-4 -8 -10 -12 -15 -9 -14 8 -10 24 6 24 9 0 12 -6 9 -15z m-1134 -25 c0 -5
-2 -10 -4 -10 -3 0 -8 5 -11 10 -3 6 -1 10 4 10 6 0 11 -4 11 -10z m882 -43
c11 -18 10 -39 -2 -32 -6 4 -8 10 -6 14 3 3 -4 8 -15 9 -43 4 -47 6 -42 19 7
17 53 9 65 -10z m-792 3 c13 -8 13 -10 -2 -10 -9 0 -20 5 -23 10 -8 13 5 13
25 0z m855 -9 c-8 -13 -32 -14 -39 -2 -4 5 3 7 14 4 12 -3 20 0 20 8 0 7 3 10
6 6 3 -3 3 -10 -1 -16z m-935 -1 c0 -5 -2 -10 -4 -10 -3 0 -8 5 -11 10 -3 6
-1 10 4 10 6 0 11 -4 11 -10z m160 -32 c0 -5 -7 -8 -15 -8 -8 0 -15 2 -15 4 0
2 -3 12 -6 21 -6 15 -4 15 15 4 11 -8 21 -17 21 -21z m1290 18 c0 -2 -8 -10
-17 -17 -16 -13 -17 -12 -4 4 13 16 21 21 21 13z m-530 -10 c0 -3 -4 -8 -10
-11 -5 -3 -10 -1 -10 4 0 6 5 11 10 11 6 0 10 -2 10 -4z m-1345 -26 c10 -11
13 -20 7 -20 -6 0 -16 9 -22 20 -6 11 -9 20 -7 20 2 0 12 -9 22 -20z m446 -3
c-1 -12 -15 -9 -19 4 -3 6 1 10 8 8 6 -3 11 -8 11 -12z m39 -2 c0 -8 -2 -15
-4 -15 -2 0 -6 7 -10 15 -3 8 -1 15 4 15 6 0 10 -7 10 -15z m40 6 c0 -17 -18
-21 -24 -6 -3 9 0 15 9 15 8 0 15 -4 15 -9z m898 -8 c-2 -9 -10 -18 -18 -20
-12 -4 -13 -3 -1 5 7 5 10 15 7 21 -4 6 -2 11 4 11 6 0 10 -8 8 -17z m945 -9
c-8 -13 -12 -28 -8 -33 3 -6 0 -9 -7 -7 -7 3 -25 7 -40 10 -54 12 -23 50 42
52 28 1 28 0 13 -22z m-1413 2 c0 -3 -4 -8 -10 -11 -5 -3 -10 -1 -10 4 0 6 5
11 10 11 6 0 10 -2 10 -4z m515 -16 c3 -6 -1 -7 -9 -4 -18 7 -21 14 -7 14 6 0
13 -4 16 -10z m716 -36 c-5 -21 -9 -30 -10 -19 -1 24 10 67 15 62 3 -2 0 -22
-5 -43z m-2141 4 c0 -6 -7 -5 -15 2 -8 7 -15 17 -15 22 0 6 7 5 15 -2 8 -7 15
-17 15 -22z m2356 8 c-5 -20 -4 -20 9 -2 11 15 21 17 49 12 20 -4 36 -11 36
-16 0 -6 3 -9 8 -9 19 3 23 -2 12 -16 -16 -19 -44 -19 -60 0 -9 11 -17 12 -30
5 -15 -8 -22 -5 -34 12 -20 28 -20 35 0 35 11 0 14 -7 10 -21z m-896 4 c0 -5
-4 -10 -10 -10 -5 0 -10 5 -10 10 0 6 5 10 10 10 6 0 10 -4 10 -10z m775 -70
c3 -5 1 -10 -4 -10 -6 0 -11 5 -11 10 0 6 2 10 4 10 3 0 8 -4 11 -10z m285
-15 c0 -8 -2 -15 -4 -15 -2 0 -6 7 -10 15 -3 8 -1 15 4 15 6 0 10 -7 10 -15z
m-1035 -5 c-3 -5 -1 -10 5 -10 6 0 9 -4 5 -10 -3 -5 -12 -7 -20 -3 -8 3 -15
-1 -15 -8 0 -7 -3 -9 -7 -6 -3 4 2 16 12 27 19 21 30 27 20 10z m348 -158 c-3
-12 -9 -22 -14 -22 -5 0 -9 -5 -9 -10 0 -6 11 -3 25 6 16 10 25 12 25 5 0 -7
10 -10 25 -7 14 3 25 1 25 -3 0 -4 7 -16 15 -27 11 -13 13 -14 9 -3 -5 16 23
36 34 24 3 -3 1 -5 -5 -5 -19 0 -10 -26 13 -37 19 -9 22 -8 19 8 -2 11 -1 19
3 19 8 0 35 -60 33 -72 0 -5 4 -8 9 -8 6 0 10 5 10 10 0 6 9 10 20 10 11 0 20
-4 20 -10 0 -5 9 -10 20 -10 31 0 23 -17 -10 -22 -16 -3 -30 -1 -30 4 0 4 -6
8 -12 8 -7 -1 -3 -9 10 -19 26 -22 29 -41 6 -41 -12 0 -15 -6 -11 -22 5 -19 2
-23 -20 -25 -14 0 -30 -8 -35 -17 -5 -9 -13 -14 -19 -11 -5 4 -9 -1 -9 -9 0
-9 -4 -16 -10 -16 -5 0 -10 5 -10 10 0 6 -5 10 -11 10 -18 0 -59 37 -51 45 4
5 -1 5 -11 2 -15 -6 -17 -3 -11 15 6 20 5 21 -10 9 -13 -11 -16 -11 -17 0 -1
8 -1 17 0 22 0 4 -3 7 -9 7 -5 0 -7 7 -4 15 5 11 2 13 -12 8 -11 -4 -15 -3
-10 5 4 7 -3 14 -19 18 -21 5 -24 11 -19 28 4 11 3 18 -1 14 -10 -10 -35 10
-35 27 0 17 57 75 75 75 8 0 15 5 15 12 0 6 2 9 5 7 2 -3 2 -15 -2 -27z
m-1543 -12 c0 -12 174 -8 182 4 5 7 12 4 20 -7 8 -10 22 -19 33 -21 14 -2 19
-10 17 -24 -2 -13 5 -25 17 -32 12 -6 21 -8 21 -5 0 4 5 3 10 0 7 -4 7 -13 0
-26 -9 -15 -7 -19 5 -19 8 0 15 -5 15 -11 0 -10 24 -39 33 -39 2 0 25 -20 49
-45 l45 -45 -37 -19 c-59 -30 -91 -29 -133 7 -9 8 -20 13 -23 9 -3 -3 -13 1
-22 9 -9 8 -60 45 -112 81 -109 76 -194 158 -186 180 4 8 13 13 21 9 8 -3 15
-1 15 4 0 5 7 7 15 4 8 -4 15 -10 15 -14z m1454 -25 c-9 -14 -20 -22 -26 -19
-5 3 1 14 13 25 29 25 33 24 13 -6z m-34 -35 c0 -5 -7 -10 -16 -10 -8 0 -12 5
-9 10 3 6 10 10 16 10 5 0 9 -4 9 -10z m350 -1 c0 -6 9 -8 20 -4 15 5 18 3 14
-8 -7 -20 -47 -16 -50 6 -1 9 2 17 7 17 5 0 9 -5 9 -11z m1050 -39 c0 -5 -2
-10 -4 -10 -3 0 -8 5 -11 10 -3 6 -1 10 4 10 6 0 11 -4 11 -10z m-945 -56 c1
-29 -1 -30 -16 -3 -9 17 -8 20 2 14 9 -6 10 -3 5 11 -4 10 -3 15 1 10 4 -4 8
-19 8 -32z m42 1 c0 -8 -4 -12 -9 -9 -4 3 -8 9 -8 15 0 5 4 9 8 9 5 0 9 -7 9
-15z m-87 -5 c0 -5 -2 -10 -4 -10 -3 0 -8 5 -11 10 -3 6 -1 10 4 10 6 0 11 -4
11 -10z m1095 0 c3 -5 1 -10 -4 -10 -6 0 -11 5 -11 10 0 6 2 10 4 10 3 0 8 -4
11 -10z m-1495 -24 c0 -3 -4 -8 -10 -11 -5 -3 -10 -1 -10 4 0 6 5 11 10 11 6
0 10 -2 10 -4z m513 -2 c3 -3 3 -13 0 -21 -5 -12 -7 -12 -14 -1 -15 23 -4 40
14 22z m53 -39 c-1 -17 -4 -21 -13 -13 -10 8 -13 6 -13 -6 0 -9 -4 -16 -10
-16 -12 0 -12 0 1 38 12 36 38 34 35 -3z m-116 10 c0 -8 -4 -15 -10 -15 -5 0
-7 7 -4 15 4 8 8 15 10 15 2 0 4 -7 4 -15z m-1039 -5 c5 0 9 -9 9 -20 0 -11 6
-20 14 -20 8 0 16 -6 19 -12 3 -10 8 -9 22 2 11 9 16 10 11 3 -4 -8 -2 -13 5
-13 10 0 10 -3 1 -12 -17 -17 -15 -38 3 -38 8 0 14 -6 13 -12 -2 -7 7 -14 20
-16 14 -2 22 -10 22 -23 0 -10 -4 -19 -9 -19 -5 0 -7 -8 -4 -19 4 -15 -3 -19
-43 -25 -80 -11 -104 -7 -129 18 -36 36 -95 80 -95 70 0 -4 -18 10 -40 31 -41
40 -49 55 -28 55 6 0 19 7 28 15 9 8 40 16 69 18 29 2 57 9 64 16 6 6 18 9 25
6 8 -3 18 -5 23 -5z m1229 -10 c0 -5 -4 -10 -10 -10 -5 0 -10 5 -10 10 0 6 5
10 10 10 6 0 10 -4 10 -10z m-140 -10 c0 -5 -2 -10 -4 -10 -3 0 -8 5 -11 10
-3 6 -1 10 4 10 6 0 11 -4 11 -10z m110 0 c0 -5 -4 -10 -9 -10 -6 0 -13 5 -16
10 -3 6 1 10 9 10 9 0 16 -4 16 -10z m-2170 -30 c0 -5 -4 -10 -9 -10 -6 0 -13
5 -16 10 -3 6 1 10 9 10 9 0 16 -4 16 -10z m243 -9 c9 -7 21 -10 27 -6 5 3 10
4 10 1 0 -2 3 -12 7 -22 5 -12 3 -15 -6 -9 -7 4 -33 9 -57 11 -52 3 -153 25
-159 34 -8 12 163 5 178 -9z m490 -71 c4 0 5 -5 1 -12 -5 -8 -2 -9 9 -5 11 4
17 1 17 -7 0 -8 6 -16 13 -19 6 -2 8 -8 4 -13 -4 -5 -12 -2 -17 5 -5 10 -32
15 -82 17 -76 2 -128 16 -128 34 0 5 3 10 8 11 7 1 19 3 80 14 17 3 32 10 32
16 0 5 12 -2 27 -16 15 -14 31 -25 36 -25z m755 -32 c-29 -18 -33 -11 -16 27
l12 27 8 -23 c6 -15 4 -25 -4 -31z m52 42 c10 16 30 4 30 -17 0 -9 -3 -13 -6
-10 -4 3 -16 1 -27 -4 -24 -13 -42 7 -24 26 8 8 13 9 16 3 2 -6 6 -5 11 2z
m1190 -24 c0 -3 -4 -8 -10 -11 -5 -3 -10 -1 -10 4 0 6 5 11 10 11 6 0 10 -2
10 -4z m-1560 -57 c0 -5 -9 -9 -20 -9 -19 0 -27 20 -13 33 7 8 33 -11 33 -24z
m1206 4 c-10 -10 -19 5 -10 18 6 11 8 11 12 0 2 -7 1 -15 -2 -18z m48 2 c-4
-8 -8 -15 -10 -15 -2 0 -4 7 -4 15 0 8 4 15 10 15 5 0 7 -7 4 -15z m700 -4 c4
-5 -3 -7 -14 -4 -23 6 -26 13 -6 13 8 0 17 -4 20 -9z m-670 -16 c3 -8 1 -15
-4 -15 -6 0 -10 7 -10 15 0 8 2 15 4 15 2 0 6 -7 10 -15z m-1759 -5 c3 -5 1
-10 -4 -10 -6 0 -11 5 -11 10 0 6 2 10 4 10 3 0 8 -4 11 -10z m1848 -31 c-6
-6 -17 -8 -24 -3 -9 5 -8 9 7 14 23 9 31 3 17 -11z m-1706 5 c-3 -3 -12 -4
-19 -1 -8 3 -5 6 6 6 11 1 17 -2 13 -5z m1030 -10 c-3 -3 -12 -4 -19 -1 -8 3
-5 6 6 6 11 1 17 -2 13 -5z m43 -36 c0 -6 -7 -5 -15 2 -13 11 -14 10 -9 -6 5
-14 4 -16 -5 -8 -6 6 -9 18 -5 28 5 13 9 14 20 5 8 -6 14 -16 14 -21z m930 12
c0 -5 -2 -10 -4 -10 -3 0 -8 5 -11 10 -3 6 -1 10 4 10 6 0 11 -4 11 -10z m330
-45 c14 -16 10 -18 -14 -9 -9 3 -16 10 -16 15 0 14 16 11 30 -6z m-250 -19 c0
-3 -4 -8 -10 -11 -5 -3 -10 -1 -10 4 0 6 5 11 10 11 6 0 10 -2 10 -4z m353
-60 c-3 -5 -12 -1 -20 9 -7 11 -13 15 -13 10 0 -5 -5 -4 -11 2 -22 22 1 31 25
10 14 -12 22 -26 19 -31z m-1663 20 c0 -3 -4 -8 -10 -11 -5 -3 -10 -1 -10 4 0
6 5 11 10 11 6 0 10 -2 10 -4z m1714 -38 c-4 -6 -10 -5 -15 3 -14 22 -10 33 6
19 8 -7 12 -17 9 -22z m-1824 -18 c0 -5 -9 -10 -21 -10 -11 0 -17 5 -14 10 3
6 13 10 21 10 8 0 14 -4 14 -10z m-50 -14 c0 -3 -4 -8 -10 -11 -5 -3 -10 -1
-10 4 0 6 5 11 10 11 6 0 10 -2 10 -4z"></path>
<path d="M2405 4530 c-3 -6 1 -7 9 -4 18 7 21 14 7 14 -6 0 -13 -4 -16 -10z"></path>
<path d="M2595 3210 c-3 -5 -1 -10 4 -10 6 0 11 5 11 10 0 6 -2 10 -4 10 -3 0
-8 -4 -11 -10z"></path>
<path d="M2757 3092 c-6 -33 -6 -33 14 -13 14 13 15 18 4 28 -10 9 -14 6 -18
-15z"></path>
<path d="M1978 3078 c2 -10 8 -15 13 -12 14 8 11 31 -5 31 -8 0 -11 -8 -8 -19z"></path>
<path d="M2820 3040 c-12 -8 -12 -10 5 -11 11 0 14 -3 8 -6 -7 -2 -13 -9 -13
-15 0 -6 6 -6 15 2 16 13 21 40 8 40 -5 0 -15 -5 -23 -10z"></path>
<path d="M2870 3020 c0 -5 5 -10 10 -10 6 0 10 5 10 10 0 6 -4 10 -10 10 -5 0
-10 -4 -10 -10z"></path>
<path d="M2900 2995 c0 -8 -7 -15 -17 -15 -25 0 -10 -10 23 -16 18 -3 24 -1
16 4 -7 5 -10 16 -6 25 3 10 1 17 -5 17 -6 0 -11 -7 -11 -15z"></path>
<path d="M2395 2990 c-3 -5 1 -10 9 -10 9 0 16 5 16 10 0 6 -4 10 -9 10 -6 0
-13 -4 -16 -10z"></path>
<path d="M2858 2993 c6 -2 18 -2 25 0 6 3 1 5 -13 5 -14 0 -19 -2 -12 -5z"></path>
<path d="M2955 2930 c-3 -5 -1 -10 4 -10 6 0 11 5 11 10 0 6 -2 10 -4 10 -3 0
-8 -4 -11 -10z"></path>
<path d="M2481 2924 c0 -5 4 -18 8 -28 6 -17 8 -17 14 -3 3 8 -1 21 -9 27 -8
7 -14 9 -13 4z"></path>
<path d="M2230 2911 c0 -6 4 -13 10 -16 6 -3 7 1 4 9 -7 18 -14 21 -14 7z"></path>
<path d="M2210 2876 c0 -2 6 -9 14 -15 10 -9 15 -8 20 4 4 10 -1 15 -14 15
-11 0 -20 -2 -20 -4z"></path>
<path d="M3000 2869 c0 -6 9 -8 20 -4 15 5 18 3 14 -9 -3 -9 -1 -16 5 -16 6 0
11 9 11 20 0 15 -7 20 -25 20 -14 0 -25 -5 -25 -11z"></path>
<path d="M2237 2813 c-4 -3 -7 -11 -7 -17 0 -6 5 -5 12 2 6 6 9 14 7 17 -3 3
-9 2 -12 -2z"></path>
<path d="M3852 1508 c-15 -15 -16 -28 -2 -28 6 0 10 7 10 16 0 9 5 12 12 8 7
-4 8 -3 4 4 -9 15 -9 15 -24 0z"></path>
<path d="M3680 1454 c0 -8 -5 -12 -10 -9 -6 4 -5 -5 2 -19 6 -14 16 -26 21
-26 5 0 4 6 -2 14 -9 11 -10 20 -1 35 7 14 7 21 0 21 -5 0 -10 -7 -10 -16z"></path>
<path d="M3770 1430 c0 -5 5 -10 11 -10 5 0 7 5 4 10 -3 6 -8 10 -11 10 -2 0
-4 -4 -4 -10z"></path>
<path d="M3350 1383 c0 -13 5 -23 10 -23 13 0 13 11 0 30 -8 12 -10 11 -10 -7z"></path>
<path d="M3654 1345 c-9 -22 1 -29 15 -11 8 10 9 16 1 21 -5 3 -13 -1 -16 -10z"></path>
<path d="M3690 1341 c0 -3 12 -24 26 -46 14 -22 23 -32 20 -22 -3 11 0 20 9
23 23 9 18 18 -20 36 -19 8 -35 13 -35 9z"></path>
<path d="M3665 1300 c4 -6 11 -8 16 -5 14 9 11 15 -7 15 -8 0 -12 -5 -9 -10z"></path>
<path d="M3696 1067 c3 -10 9 -15 12 -12 3 3 0 11 -7 18 -10 9 -11 8 -5 -6z"></path>
<path d="M4118 1003 c6 -2 9 -10 6 -15 -5 -7 -2 -8 6 -3 9 5 10 1 6 -16 -6
-21 -5 -22 4 -6 13 20 -2 48 -24 46 -7 0 -6 -2 2 -6z"></path>
<path d="M3405 830 c-3 -5 -1 -10 4 -10 6 0 11 5 11 10 0 6 -2 10 -4 10 -3 0
-8 -4 -11 -10z"></path>
<path d="M3461 814 c0 -11 3 -14 6 -6 3 7 2 16 -1 19 -3 4 -6 -2 -5 -13z"></path>
<path d="M3535 780 c-3 -5 -1 -10 4 -10 6 0 11 5 11 10 0 6 -2 10 -4 10 -3 0
-8 -4 -11 -10z"></path>
<path d="M1565 4680 c-3 -5 -1 -10 4 -10 6 0 11 5 11 10 0 6 -2 10 -4 10 -3 0
-8 -4 -11 -10z"></path>
<path d="M1214 4403 c2 -9 8 -18 15 -19 6 -1 7 0 1 3 -5 2 -8 9 -5 13 3 5 1
11 -4 14 -5 4 -8 -2 -7 -11z"></path>
<path d="M1255 4381 c3 -5 1 -12 -5 -16 -5 -3 -10 -11 -10 -16 0 -6 4 -7 10
-4 5 3 7 0 4 -8 -3 -8 -1 -18 5 -22 7 -4 11 4 11 20 0 20 4 26 15 21 8 -3 15
-1 15 4 0 6 -7 10 -15 10 -8 0 -15 5 -15 10 0 6 -5 10 -11 10 -5 0 -8 -4 -4
-9z"></path>
<path d="M1177 4340 c4 -15 2 -19 -10 -14 -13 5 -15 -1 -12 -33 4 -31 3 -33
-4 -13 -8 23 -9 24 -10 3 -1 -12 6 -29 15 -37 21 -21 23 -20 18 8 -2 13 3 39
11 59 13 32 12 47 -6 47 -4 0 -5 -9 -2 -20z"></path>
<path d="M1265 4290 c3 -5 8 -10 11 -10 2 0 4 5 4 10 0 6 -5 10 -11 10 -5 0
-7 -4 -4 -10z"></path>
<path d="M1879 4265 c-2 -1 -29 -5 -59 -8 -31 -2 -67 -10 -80 -18 l-25 -13 30
-6 c17 -4 38 -3 47 2 9 4 25 8 35 8 17 -1 17 -1 1 -14 -16 -11 -9 -14 50 -19
64 -6 223 -54 230 -69 2 -5 10 -8 18 -8 8 0 17 -7 20 -15 4 -10 13 -13 25 -10
11 4 19 2 19 -5 0 -7 8 -10 20 -7 13 3 24 -3 35 -20 11 -15 22 -22 32 -19 21
8 43 -12 36 -31 -5 -13 -2 -15 11 -10 11 5 25 -1 39 -17 12 -13 30 -22 39 -20
10 1 20 -6 23 -16 3 -11 11 -17 18 -15 15 5 41 -14 50 -38 3 -9 10 -16 14 -15
16 3 61 -25 58 -36 -3 -6 15 -20 38 -31 23 -11 41 -24 39 -29 -2 -5 9 -15 25
-21 26 -12 75 -52 131 -107 12 -13 25 -33 28 -45 7 -24 24 -31 25 -10 0 6 5 2
11 -10 6 -13 17 -23 25 -23 10 0 12 -6 8 -20 -5 -14 -2 -20 10 -20 9 0 14 -4
11 -9 -3 -5 1 -11 9 -15 8 -3 12 -12 9 -19 -3 -8 1 -17 9 -20 9 -3 18 -20 22
-37 5 -22 11 -30 22 -26 8 3 17 6 19 6 3 0 3 4 0 9 -4 5 3 7 14 4 17 -5 20 0
20 29 0 40 -18 98 -31 98 -4 0 -16 16 -25 35 -9 19 -20 35 -25 35 -5 0 -9 6
-9 14 0 8 -7 16 -15 20 -8 3 -15 11 -15 17 0 16 -31 38 -53 39 -10 0 -17 6
-15 14 3 15 -38 56 -56 56 -6 0 -4 5 4 10 13 9 13 10 0 11 -8 1 -21 1 -27 0
-8 -1 -10 5 -7 14 3 8 2 15 -3 15 -5 0 -18 7 -28 15 -11 8 -49 38 -85 65 -36
27 -75 59 -87 70 -13 12 -23 18 -23 14 0 -3 -16 10 -36 29 -20 19 -42 33 -49
30 -7 -2 -16 5 -20 17 -4 12 -12 19 -18 17 -7 -2 -18 3 -25 10 -8 8 -23 11
-35 7 -16 -5 -19 -3 -14 10 7 18 -27 37 -50 29 -7 -3 -13 0 -13 6 0 6 -13 11
-29 11 -17 0 -33 5 -37 12 -4 7 -3 8 4 4 7 -4 12 -2 12 5 0 7 -10 9 -25 7 -18
-4 -25 -1 -25 10 0 12 -3 12 -15 2 -14 -12 -19 -7 -16 13 1 5 -9 7 -21 5 -13
-2 -29 4 -36 12 -10 12 -14 12 -19 2 -4 -10 -8 -9 -18 5 -12 16 -17 16 -35 5
-12 -8 -19 -9 -16 -3 4 5 2 12 -3 15 -5 4 -12 2 -16 -4 -3 -5 -11 -10 -16 -10
-6 0 -7 5 -3 12 5 8 0 9 -16 5 -12 -3 -32 -2 -45 3 -13 5 -25 7 -26 5z"></path>
<path d="M1224 4235 c5 -19 2 -25 -10 -25 -10 0 -14 6 -11 14 4 11 1 11 -19 2
-13 -6 -24 -18 -24 -26 0 -13 1 -13 10 0 8 12 11 11 16 -8 6 -20 8 -21 19 -6
8 12 14 14 19 6 12 -19 21 -14 22 13 1 14 -2 25 -7 25 -4 0 -6 7 -3 15 4 8 1
15 -6 15 -8 0 -10 -9 -6 -25z"></path>
<path d="M1261 4228 c9 -17 13 -18 20 -7 13 21 11 25 -11 26 -17 2 -19 -1 -9
-19z"></path>
<path d="M951 4198 c1 -7 1 -22 0 -33 -2 -19 -3 -19 -13 2 -10 22 -11 21 -39
-17 -28 -38 -30 -70 -5 -70 7 0 6 -3 -2 -9 -11 -7 -11 -9 2 -14 10 -4 21 1 28
13 7 11 19 20 27 20 9 0 4 9 -13 25 -14 13 -26 30 -26 37 1 9 4 8 13 -3 14
-19 47 -21 40 -3 -2 7 1 22 7 35 10 17 14 19 21 8 4 -7 11 -10 15 -6 10 10 1
17 -30 23 -18 3 -26 0 -25 -8z"></path>
<path d="M1000 4134 c0 -8 5 -12 10 -9 6 4 8 11 5 16 -9 14 -15 11 -15 -7z"></path>
<path d="M1636 4095 c-7 -20 -6 -22 14 -25 26 -4 40 0 40 11 0 5 -5 7 -11 4
-6 -4 -16 1 -23 10 -12 17 -13 17 -20 0z"></path>
<path d="M1606 4084 c-4 -9 -4 -19 -1 -22 2 -3 7 3 11 12 4 9 4 19 1 22 -2 3
-7 -3 -11 -12z"></path>
<path d="M980 4075 c-8 -9 -8 -15 -2 -15 12 0 26 19 19 26 -2 2 -10 -2 -17
-11z"></path>
<path d="M1223 4074 c-20 -20 -16 -34 13 -44 22 -9 25 -15 22 -40 -3 -17 -1
-30 4 -30 4 0 8 -7 8 -16 0 -8 -4 -12 -10 -9 -5 3 -10 0 -10 -8 0 -17 36 -15
55 4 8 8 16 24 18 36 2 12 6 25 9 29 10 9 -3 35 -13 28 -5 -3 -6 2 -3 10 3 9
-2 17 -14 20 -11 4 -23 14 -27 24 -5 14 -7 14 -16 2 -6 -11 -11 -12 -16 -4 -6
9 -11 8 -20 -2z"></path>
<path d="M1697 4063 c-13 -12 -7 -18 22 -20 16 -1 49 -11 73 -22 62 -28 100
-33 96 -12 -2 9 -11 15 -21 13 -9 -2 -17 3 -17 11 0 24 -133 51 -153 30z"></path>
<path d="M985 4050 c-4 -6 -13 -9 -21 -6 -8 3 -14 -1 -14 -10 0 -11 4 -13 17
-5 11 6 24 6 36 -1 15 -8 18 -6 15 8 -4 21 -24 29 -33 14z"></path>
<path d="M1143 4033 c-3 -10 -8 -22 -11 -27 -3 -5 0 -6 5 -3 11 7 25 47 17 47
-3 0 -7 -8 -11 -17z"></path>
<path d="M970 4008 c0 -8 7 -15 15 -15 18 0 15 19 -3 25 -7 2 -12 -3 -12 -10z"></path>
<path d="M1913 3987 c-3 -6 -2 -8 3 -5 5 3 14 0 21 -7 10 -11 10 -15 0 -18 -7
-3 -2 -6 11 -6 35 -1 36 -2 53 -17 9 -8 19 -11 22 -7 4 3 7 -2 7 -12 0 -14 3
-15 14 -6 17 14 49 3 42 -15 -3 -8 -1 -14 4 -14 6 0 10 -9 10 -19 0 -24 30
-37 30 -13 1 14 4 13 20 -6 10 -12 21 -18 24 -13 6 9 46 3 46 -7 0 -2 -8 -11
-17 -18 -17 -11 -16 -13 9 -19 14 -4 28 -15 31 -26 6 -24 57 -27 57 -4 0 13 2
13 14 3 7 -7 11 -19 8 -27 -4 -11 -1 -13 12 -8 14 5 17 3 12 -8 -4 -11 1 -15
17 -15 17 0 22 -6 24 -27 0 -15 6 -29 12 -31 5 -2 8 -11 5 -20 -3 -9 2 -5 11
11 18 31 19 31 46 17 22 -12 24 -7 8 21 -8 15 -7 24 2 36 11 12 10 14 -2 13
-36 -6 -47 0 -41 22 3 14 2 19 -6 14 -7 -4 -12 -2 -12 3 0 6 -11 11 -24 11
-23 0 -41 23 -31 40 3 4 -11 11 -30 14 -34 7 -47 28 -25 41 24 15 8 26 -28 20
-29 -5 -42 -2 -52 9 -7 9 -18 16 -25 16 -9 0 -11 8 -8 23 5 22 5 22 -12 2 -13
-16 -16 -17 -11 -3 4 13 -1 17 -17 15 -32 -2 -95 24 -101 42 -3 9 -4 3 -2 -13
l4 -30 -19 25 c-10 13 -19 20 -19 15 0 -5 -7 -3 -15 4 -12 10 -15 10 -15 0 0
-9 -4 -9 -12 -3 -16 13 -47 13 -55 0z"></path>
<path d="M1066 3966 c-13 -13 -16 -21 -8 -24 7 -2 12 -10 12 -17 0 -7 7 -15
15 -19 12 -4 15 1 13 22 -1 15 1 33 5 39 13 20 -18 20 -37 -1z"></path>
<path d="M1036 3913 c-3 -4 -20 -7 -38 -8 -40 -2 -72 -38 -58 -66 10 -18 12
-18 38 5 15 14 38 34 51 45 13 12 22 23 19 26 -2 3 -8 2 -12 -2z m-16 -17 c0
-3 -4 -8 -10 -11 -5 -3 -10 -1 -10 4 0 6 5 11 10 11 6 0 10 -2 10 -4z m-40
-16 c0 -5 -5 -10 -11 -10 -5 0 -7 5 -4 10 3 6 8 10 11 10 2 0 4 -4 4 -10z"></path>
<path d="M1203 3902 c-5 -22 -29 -36 -44 -26 -5 3 -9 1 -9 -4 0 -17 12 -21 32
-9 16 9 22 9 25 -1 4 -10 8 -10 19 -1 8 6 14 17 14 23 0 6 -5 4 -11 -4 -9 -12
-10 -11 -6 7 6 29 -12 42 -20 15z"></path>
<path d="M1113 3885 c-6 -14 -7 -25 -2 -25 11 0 22 25 17 39 -1 6 -8 -1 -15
-14z"></path>
<path d="M1274 3866 c-20 -22 -24 -47 -9 -62 13 -14 15 -13 15 2 0 10 3 14 7
11 8 -9 33 12 33 29 0 20 -33 34 -46 20z m36 -19 c0 -7 -9 -13 -19 -13 -15 0
-17 3 -9 13 6 7 14 13 19 13 5 0 9 -6 9 -13z"></path>
<path d="M986 3831 c-15 -6 -16 -9 -5 -13 26 -10 33 -9 35 7 2 16 -2 17 -30 6z"></path>
<path d="M1196 3817 c3 -10 9 -15 12 -12 3 3 0 11 -7 18 -10 9 -11 8 -5 -6z"></path>
<path d="M936 3812 c-11 -10 -6 -22 10 -22 8 0 13 -4 10 -9 -6 -9 23 -25 31
-17 3 2 2 13 -1 24 -7 19 -39 35 -50 24z"></path>
<path d="M1146 3784 c-5 -14 -4 -15 9 -4 17 14 19 20 6 20 -5 0 -12 -7 -15
-16z"></path>
<path d="M905 3738 c3 -20 2 -26 -2 -16 -7 14 -12 13 -41 -13 -35 -32 -35 -38
2 -13 18 11 26 12 31 3 11 -16 34 28 27 53 -8 31 -22 20 -17 -14z"></path>
<path d="M1096 3755 c4 -8 1 -15 -5 -15 -6 0 -11 -10 -11 -22 0 -28 16 -13 25
25 5 17 3 27 -4 27 -6 0 -8 -7 -5 -15z"></path>
<path d="M1145 3720 c3 -5 8 -10 11 -10 2 0 4 5 4 10 0 6 -5 10 -11 10 -5 0
-7 -4 -4 -10z"></path>
<path d="M1110 3711 c0 -5 9 -11 21 -14 16 -4 18 -3 8 9 -13 16 -29 19 -29 5z"></path>
<path d="M2495 3650 c-3 -6 1 -7 9 -4 18 7 21 14 7 14 -6 0 -13 -4 -16 -10z"></path>
<path d="M745 3600 c3 -5 10 -10 16 -10 5 0 9 5 9 10 0 6 -7 10 -16 10 -8 0
-12 -4 -9 -10z"></path>
<path d="M730 3575 c0 -8 4 -15 10 -15 5 0 7 7 4 15 -4 8 -8 15 -10 15 -2 0
-4 -7 -4 -15z"></path>
<path d="M696 3535 c-3 -8 -1 -15 4 -15 6 0 10 7 10 15 0 8 -2 15 -4 15 -2 0
-6 -7 -10 -15z"></path>
<path d="M3300 3451 c0 -5 5 -13 10 -16 6 -3 10 -2 10 4 0 5 -4 13 -10 16 -5
3 -10 2 -10 -4z"></path>
<path d="M4385 3418 c3 -7 9 -42 14 -78 5 -36 16 -101 25 -145 8 -44 17 -107
19 -139 2 -35 8 -61 15 -64 7 -2 12 5 12 17 0 11 4 22 10 26 5 3 7 12 3 20 -3
9 0 22 7 30 9 10 9 15 1 15 -6 0 -11 -5 -11 -12 0 -8 -3 -9 -10 -2 -9 9 -19
87 -23 192 -2 29 -8 57 -15 61 -7 4 -10 15 -6 24 4 11 0 19 -10 23 -9 3 -16
15 -16 25 0 10 -4 19 -10 19 -5 0 -7 -6 -5 -12z"></path>
<path d="M3550 3401 c0 -5 7 -11 14 -14 10 -4 13 -1 9 9 -6 15 -23 19 -23 5z"></path>
<path d="M3570 3332 c0 -7 -9 -12 -19 -12 -11 0 -23 -6 -27 -12 -4 -7 -4 -10
1 -6 4 4 20 1 36 -8 17 -8 29 -10 29 -4 0 5 -6 10 -12 10 -9 0 -8 3 2 10 12 7
12 12 2 22 -9 9 -12 9 -12 0z"></path>
<path d="M5103 3205 c0 -8 4 -15 9 -15 4 0 8 4 8 9 0 6 -4 12 -8 15 -5 3 -9
-1 -9 -9z"></path>
<path d="M3535 3200 c-3 -5 1 -10 9 -10 8 0 18 5 21 10 3 6 -1 10 -9 10 -8 0
-18 -4 -21 -10z"></path>
<path d="M3670 3080 c0 -6 7 -10 15 -10 8 0 15 2 15 4 0 2 -7 6 -15 10 -8 3
-15 1 -15 -4z"></path>
<path d="M3670 3051 c0 -5 7 -12 16 -15 14 -5 15 -4 4 9 -14 17 -20 19 -20 6z"></path>
<path d="M4930 2500 c0 -6 7 -10 15 -10 8 0 15 2 15 4 0 2 -7 6 -15 10 -8 3
-15 1 -15 -4z"></path>
<path d="M3990 2365 c-7 -9 -11 -18 -8 -20 3 -3 11 1 18 10 7 9 11 18 8 20 -3
3 -11 -1 -18 -10z"></path>
<path d="M4895 1500 c3 -5 8 -10 11 -10 2 0 4 5 4 10 0 6 -5 10 -11 10 -5 0
-7 -4 -4 -10z"></path>
<path d="M4726 1233 c11 -10 21 -29 21 -42 1 -14 11 -34 22 -45 23 -23 61 -29
61 -9 0 7 5 13 10 13 6 0 10 -5 10 -11 0 -5 4 -8 9 -4 5 3 31 1 58 -5 41 -10
49 -9 60 6 12 17 13 16 13 -3 0 -32 10 -33 65 -8 50 21 51 23 53 68 1 27 -3
47 -9 47 -5 0 -32 -11 -59 -25 -68 -35 -112 -34 -183 4 -41 22 -72 31 -104 31
-45 0 -45 -1 -27 -17z"></path>
<path d="M4782 988 c-50 -31 -43 -42 23 -38 36 2 48 11 40 33 -10 25 -29 27
-63 5z"></path>
<path d="M5073 959 c-19 -19 -94 -31 -109 -18 -11 9 -21 9 -41 0 -20 -9 -28
-9 -34 0 -5 9 -14 8 -37 -2 -20 -8 -27 -16 -19 -21 6 -4 18 -1 26 5 12 10 14
8 9 -10 -4 -16 -2 -20 9 -16 7 3 22 -2 32 -11 14 -12 21 -14 26 -6 5 8 13 5
26 -9 22 -23 79 -28 123 -11 21 8 26 16 26 44 0 58 -14 78 -37 55z"></path>
<path d="M4160 535 c-8 -9 -8 -15 -2 -15 12 0 26 19 19 26 -2 2 -10 -2 -17
-11z"></path>
<path d="M4298 383 c7 -3 16 -2 19 1 4 3 -2 6 -13 5 -11 0 -14 -3 -6 -6z"></path>
<path d="M4540 319 c0 -5 5 -7 10 -4 6 3 10 8 10 11 0 2 -4 4 -10 4 -5 0 -10
-5 -10 -11z"></path>
<path d="M4983 73 c9 -2 23 -2 30 0 6 3 -1 5 -18 5 -16 0 -22 -2 -12 -5z"></path>
</g>
</svg>