<?xml version="1.0" standalone="no"?>
<!DOCTYPE svg PUBLIC "-//W3C//DTD SVG 20010904//EN"
 "http://www.w3.org/TR/2001/REC-SVG-20010904/DTD/svg10.dtd">
<svg version="1.0" xmlns="http://www.w3.org/2000/svg"
 width="533.000000pt" height="343.000000pt" viewBox="0 0 533.000000 343.000000"
 preserveAspectRatio="xMidYMid meet">

<g transform="translate(0.000000,343.000000) scale(0.100000,-0.100000)"
fill="#000000" stroke="none">
<path d="M945 3389 c-129 -21 -218 -45 -275 -72 -36 -17 -72 -32 -80 -33 -20
-1 -176 -112 -215 -152 -135 -136 -198 -231 -248 -372 -62 -177 -62 -177 -59
-414 2 -212 3 -222 31 -305 46 -137 97 -236 156 -308 19 -23 35 -47 35 -52 0
-6 4 -11 8 -11 4 0 39 -30 78 -66 38 -36 80 -72 94 -79 14 -7 49 -29 79 -49
29 -20 59 -36 67 -36 8 0 37 -11 64 -25 28 -14 105 -37 172 -52 116 -25 143
-26 488 -32 358 -6 366 -6 410 -29 25 -13 55 -36 68 -50 32 -37 72 -127 72
-162 0 -58 -59 -155 -123 -201 l-40 -29 -701 0 -701 1 -3 -93 c-2 -51 0 -103
3 -115 l5 -23 680 0 c749 0 785 2 866 59 23 16 50 32 61 35 11 4 25 18 31 31
6 14 19 25 27 25 9 0 20 12 26 27 5 14 26 53 47 86 l37 60 -1 136 c0 144 -2
151 -60 248 -42 70 -151 167 -200 179 -16 4 -33 10 -39 14 -5 4 -44 15 -85 23
-60 13 -150 17 -450 20 l-375 3 -95 42 c-52 23 -100 42 -105 42 -6 0 -26 13
-45 30 -19 16 -40 29 -46 30 -6 0 -25 13 -41 29 -17 15 -34 30 -39 32 -11 5
-94 104 -94 113 0 3 -16 28 -35 55 -19 26 -35 54 -35 61 0 7 -12 45 -26 84
-39 109 -53 286 -30 402 32 167 86 295 152 364 19 20 34 40 34 44 0 13 101
106 114 106 7 0 23 11 36 25 13 14 28 25 34 25 6 0 25 7 41 16 67 35 133 58
195 66 36 5 780 11 1654 13 1108 3 1593 8 1600 15 16 16 21 197 6 215 -11 13
-218 15 -1599 13 -872 -1 -1604 -5 -1626 -9z"/>
<path d="M4520 3390 c-8 -5 -12 -159 -30 -1055 -11 -557 -19 -765 -29 -765 -8
0 -71 104 -71 118 0 5 -7 15 -16 23 -9 7 -28 38 -44 69 -16 31 -35 62 -44 69
-9 8 -16 21 -16 31 0 10 -7 23 -16 31 -8 7 -27 36 -41 63 -14 28 -36 64 -49
79 -13 16 -24 34 -24 41 0 7 -13 30 -29 52 -30 40 -66 101 -98 164 -10 19 -28
49 -39 65 -12 17 -34 53 -49 80 -15 28 -36 59 -46 71 -16 17 -26 50 -16 56 1
0 70 4 152 7 l150 6 0 115 0 115 -245 1 c-135 1 -359 -1 -497 -4 -220 -4 -253
-7 -257 -21 -3 -9 -7 -234 -11 -501 -3 -267 -10 -871 -16 -1342 -6 -472 -8
-862 -4 -868 4 -6 51 -10 115 -10 106 0 110 1 114 23 3 12 10 402 16 867 7
465 13 847 16 849 6 6 34 -21 34 -33 0 -7 13 -27 30 -46 16 -19 29 -41 30 -49
0 -7 14 -30 30 -51 17 -21 30 -43 30 -48 0 -6 16 -31 36 -57 19 -26 39 -56 43
-68 9 -24 62 -106 111 -174 16 -23 30 -46 30 -51 0 -5 13 -26 30 -48 16 -21
30 -42 30 -46 0 -4 33 -56 73 -116 39 -61 104 -163 142 -227 39 -64 82 -132
98 -152 15 -20 27 -41 27 -48 0 -7 6 -18 14 -24 8 -7 27 -36 41 -64 15 -29 35
-61 45 -72 10 -11 30 -42 44 -69 14 -27 31 -55 38 -64 7 -8 17 -22 23 -32 48
-84 82 -140 103 -167 l24 -33 343 0 343 0 6 63 c3 34 8 141 11 237 3 96 8 234
10 305 3 72 9 269 15 440 6 171 12 371 15 445 25 732 44 1680 36 1777 l-3 43
-104 0 c-99 0 -105 -1 -113 -22 -5 -13 -9 -115 -10 -228 -1 -113 -4 -277 -6
-365 -6 -238 -14 -571 -20 -825 -3 -124 -7 -274 -10 -335 -3 -60 -7 -240 -10
-400 -3 -159 -7 -344 -10 -410 -2 -66 -7 -203 -11 -305 -4 -122 -10 -187 -17
-192 -7 -4 -85 -8 -175 -8 l-162 0 -28 44 c-15 24 -34 57 -43 73 -53 91 -131
216 -158 253 -17 24 -31 47 -31 52 0 5 -11 24 -25 42 -14 18 -25 38 -25 43 0
6 -7 16 -16 24 -9 7 -29 39 -45 70 -16 32 -33 60 -39 64 -9 5 -58 85 -102 166
-9 17 -23 38 -31 47 -18 22 -97 152 -97 161 0 4 -18 32 -40 61 -22 29 -40 59
-40 65 0 6 -13 26 -28 45 -16 19 -40 55 -53 80 -60 106 -118 199 -159 252 -11
14 -20 30 -20 35 0 4 -18 34 -40 66 -22 31 -40 63 -40 71 0 7 -7 20 -16 27 -9
7 -30 36 -46 64 -16 27 -47 79 -68 115 l-39 65 0 147 c-1 170 -6 162 104 156
64 -3 54 5 119 -104 16 -27 36 -60 45 -73 9 -14 29 -47 44 -75 16 -28 37 -60
48 -72 10 -11 19 -25 19 -30 0 -6 13 -30 28 -55 28 -43 60 -96 112 -183 14
-23 44 -74 68 -112 23 -38 48 -78 54 -89 7 -11 26 -42 44 -70 17 -27 48 -79
69 -115 21 -36 46 -76 55 -90 10 -14 28 -46 40 -70 13 -25 36 -61 51 -80 16
-19 29 -39 29 -45 0 -6 12 -28 27 -50 15 -22 34 -52 43 -67 32 -57 74 -125
100 -163 15 -22 37 -58 49 -80 12 -22 32 -56 44 -76 12 -20 33 -55 46 -78 14
-22 28 -41 31 -41 15 0 52 1311 60 2130 2 195 4 384 4 420 l1 65 -104 5 c-56
3 -107 3 -111 0z"/>
<path d="M1035 2812 c-102 -24 -134 -43 -227 -133 -28 -27 -48 -55 -48 -68 0
-11 -4 -21 -9 -21 -5 0 -19 -27 -31 -60 -19 -52 -22 -74 -18 -177 4 -112 6
-121 40 -189 24 -46 56 -88 90 -119 60 -55 171 -110 248 -125 29 -6 221 -10
427 -10 l374 0 97 -31 c144 -46 201 -79 316 -182 37 -34 72 -71 77 -82 5 -11
23 -38 39 -60 16 -22 29 -47 30 -56 0 -9 9 -38 21 -64 47 -106 62 -310 34
-466 -18 -103 -64 -236 -98 -281 -13 -18 -27 -42 -31 -53 -9 -29 -151 -175
-172 -175 -5 -1 -25 -14 -44 -30 -19 -17 -40 -30 -46 -30 -6 0 -42 -14 -79
-31 -45 -21 -93 -35 -144 -40 -42 -5 -408 -9 -813 -9 l-738 0 0 -102 c0 -57 4
-109 8 -116 7 -10 158 -12 778 -10 755 4 771 4 867 26 87 20 172 51 233 85 88
49 139 86 204 146 40 39 76 68 80 65 3 -3 7 -78 10 -167 l5 -162 110 0 110 0
6 155 c4 85 10 701 14 1368 l7 1212 -484 2 c-1169 4 -1181 4 -1243 -10z m1443
-232 l44 0 -3 -312 c-2 -172 -6 -342 -9 -377 l-5 -65 -75 66 c-114 99 -179
135 -375 209 -27 11 -66 19 -87 19 -20 0 -49 5 -65 12 -19 8 -150 14 -423 17
-355 5 -398 8 -420 24 -13 9 -32 17 -41 17 -26 0 -79 99 -86 159 -8 72 17 132
81 193 l51 48 685 -4 c377 -3 704 -6 728 -6z"/>
</g>
</svg>
